<?xml version="1.0" encoding="utf-8"?>
<!-- Generator: Adobe Illustrator 27.3.1, SVG Export Plug-In . SVG Version: 6.00 Build 0)  -->
<svg version="1.1" id="Layer_1" xmlns="http://www.w3.org/2000/svg" xmlns:xlink="http://www.w3.org/1999/xlink" x="0px" y="0px"
	 viewBox="0 0 900 300" style="enable-background:new 0 0 900 300;" xml:space="preserve">
<style type="text/css">
	.st0{fill:#2B2B2B;}
</style>
<g>
	<g>
		<g>
			<path class="st0" d="M216.4,44.78c-9.15-8.15-14.1-12.09-14.1-12.09l2.24-2.97l4.16-7.19l0.05-3.02l-2.88,0.82l-6.91,10.76
				L180.7,55.9c0,0-3.38,1.56-3.93,4.35l-2.31,3.91l-0.72-0.46l-0.49,0.77l0.58,0.4l-0.34,0.33l-0.63-0.34l-0.43,0.74l0.63,0.43
				l-26.24,34.65l-0.91-0.55l-0.62,0.75l0.94,0.6l-0.5,0.48l-1.01-0.53l-0.62,0.92l0.66,0.57l-7.94,10.64c0,0-0.34-7.3-1.24-8.46
				c-0.89-1.17,0.6-1.88-0.27-2.5c-0.87-0.62-2.54-0.32-3.14-0.99c-0.6-0.66-2.27-2.15-2.86-4.8c-0.6-2.65,0.37-3.48,0.71-4.42
				s1.14-3.27-0.32-5.26c-1.47-1.99-1.6-4.58-0.16-5.54c1.44-0.96,3.89-1.69,3.98-4.49c0.09-2.79,0.05-4.37-0.28-5.26
				c-0.32-0.89,0.07-5.47,0.25-5.95c0.18-0.48-0.2-3.02,0.32-4.49c0.53-1.47,1.08-1.6,1.08-1.7c0-0.09-2.94-4.93-2.94-4.93
				l-9.78-0.38c0,0-2.03,0.31-1.96,2.27c0.07,1.96,0.31,7.21,0.93,8.13c0.62,0.93-1.31,0.69-1.82,0.69c-0.51,0-3.24-0.55-3.79,1.92
				c-0.55,2.47-1.36,3.79-3.1,4.24c-1.75,0.44-3.98,0.03-4.51,0.86c-0.53,0.82-0.84,2.47-0.58,2.85c0.26,0.38,0.58,0.96,0.46,1.58
				c-0.12,0.62-1.15,2.14,0.41,4.21c1.56,2.06,1.87,2.06,2.25,3.36c0.38,1.3-0.86,2.25,1.46,3.93c2.32,1.69,2.87,1.48,2.87,1.48
				s0.79,1.8,0.24,2.06c-0.55,0.25-1.27,1.29-0.38,2.21c0.84,0.87,1.3,0.71,1.35,0.69c-0.11,0.19-3.26,5.97,2.55,6.62l-1.76,4.44
				c0,0-4.26,1.37-4.9,6.45c-0.64,5.08-2.22,10.85-4.14,11.19c-1.92,0.34-1.67-0.34-4.07,0.73s-2.98,1.7-4.05,0.89
				c-1.08-0.8-0.73-1.14-3.09-1.79c-2.36-0.64-3.14-1.42-4.42-0.07c-1.28,1.35-2.63,1.58-2.47,3.82c0.16,2.24-0.09,3.64-0.85,3.75
				c-0.76,0.11-1.01,0.25-1.42,0.18c-0.41-0.07-1.37-0.11-1.69,0.28c-0.32,0.39-1.33,1.19-1.95,1.17c-0.62-0.02-1.51,0.48-1.67,0.89
				c-0.16,0.41-1.48,1.12-2.24,0.69c-0.76-0.44-13.94-15.65-23.73-17.44c-9.79-1.79-10.62-0.87-10.62-0.87l-3.48-4.8
				c0,0,1.27-2.81-0.63-5.14l-1.05-0.99c0,0-1.2,1.25-0.93,2.33c0.28,1.08-0.51,1.92-1.27,2.59c-0.76,0.67-0.74,1.75-0.74,1.75
				s-1.13-0.89-1-1.85c0.14-0.96-0.07-3.43-0.81-3.98c0,0-2.9,0.62-2.49,4.75c0.41,4.14,0.89,4.16,0.28,4.43
				c-0.62,0.28-3.31,0.38-4.53,4.5s-0.86,6.11-1.37,7.4c-0.52,1.29-2.3,4.19-2.64,5.47c-0.34,1.29-1.58,4.48-2.59,4.7
				c-1.01,0.22-2.99,0.78-3.21,2c0,0-0.17,0.57,0.38,1.04c0.55,0.47-0.63,2.52-0.63,2.52s-2.9,4.2-3.96,5.56
				c-1.05,1.36-2.04,4.76-0.25,6.32c1.79,1.56,9.38,4.1,10.88,4.45c1.5,0.35,2.52-0.89,2.8-0.89c0.28,0,2.41-0.24,3.05,0.27
				c0.64,0.52,4.78,4.22,5.61,4.33c0.82,0.1,0.54,0.03,0.88,1.04c0.34,1.01,2.23,4.39,4.1,4.34c1.86-0.06,2.6-1.66,2.87-1.98
				c0.28-0.32,1.56-0.17,2.17,0.32c0.62,0.49,2.41,0.94,2.91,0.55c0.5-0.39,0.43-0.41,0.91-0.31c0.48,0.1,1.29-0.19,1.85,0
				c0.56,0.19,2.11,0.96,3.23,2.78c1.12,1.82,2.9,6.76,5.01,8.09c0,0,1.16,0.26,0.42,2.84c-0.73,2.57-0.23,7.63-0.23,7.63
				s-0.47,3.36,0.28,5.28c0.76,1.93,1.73,4.61,2.16,5.3c0.44,0.69,2.48,5.1,2.48,5.1s2.4,4.36,2.53,4.93
				c0.13,0.57,1.32,2.48,1.42,5.84c0.1,3.35,0.73,8.69,0.6,9.96c-0.14,1.27,1.69,15.14,1.69,15.14s0.55,5.13,0.23,5.99
				c-0.32,0.87-0.64,1.92-0.27,3.75c0.37,1.83-0.07,2.98-0.39,3.84c-0.32,0.87-0.14,2.98-0.14,2.98s-2.31,1.9-2.56,2.88
				c-0.25,0.99,0,3.23,0,3.23s-1.47,0.71-2.17,2.08c-0.71,1.37-0.41,2.56-1.28,3.29c-0.87,0.73-3.27,4.37-3.27,4.37
				s-1.14,2.24-1.23,2.68c-0.09,0.44-0.39,1.99-1.1,2.38c-0.71,0.39-2.1,2.33-1.58,3.59h9.73c0,0,4.14-1.33,3.64-4.46
				c-0.51-3.14,4.87-4.28,4.85-7.53c-0.03-3.25-0.21-3.71,0.46-4.17c0.66-0.46,0-3.34,0-3.34l1.28-12.47c0,0,0.82-5.15,0.8-6.11
				c-0.02-0.96,1.12-0.41,1.19-1.17c0.07-0.75-0.76-1.81,0.18-1.78c0.94,0.02,2.77,1.37,3.71,3.5c0.94,2.13,1.83,2.58,1.92,5.36
				c0.09,2.77,0.46,5.88,0.21,6.68c-0.25,0.8-0.71,4.69-1.31,5.95c-0.6,1.26-2.08,5.33-3.82,6.32c-1.74,0.98-3.61,3.13-2.15,5.65
				c1.47,2.52,9,1.79,9.04,1.7c0.05-0.09,2.04-2.72,2.04-2.72l0.28-3.98c0,0,3.36-1.79,3.71-4.14c0.34-2.36,0.14-6.5,0.14-6.5
				s-0.6,0.07-0.78-1.83c-0.18-1.9-0.64-8.1-1.12-9.41c-0.48-1.3-1.01-0.75-1.17-2.24c-0.16-1.49-1.42-6.59-1.24-8.86
				c0.18-2.27-0.14-4.97-0.34-5.82c-0.21-0.85,0.48-2.88,0.41-4.8c-0.07-1.92,0.11-5.15,0.57-7.6c0.46-2.45,0.6-6.8,3.72-9.54
				c3.12-2.75,3.53-2.38,3.94-1.81c0.41,0.57-0.23,1.97-1.1,2.24c-0.87,0.28-2.77,0.23-3.59,1.63c-0.82,1.39-1.83,3.91,1.62,4.28
				c3.46,0.37,11.51-0.37,12.7-0.32c0,0,0.18-3.14,1.23-3.18c1.05-0.05,1.05,3.52,1.05,3.52l3-0.14l-0.11-3.98
				c0,0-0.75-1.22-0.64-2.77c0.11-1.56,1.12-1.46,1.26-1.46c0.14,0,6.34-0.85,6.93-1.49c0.6-0.64,1.35,1.19,1.48,2.5
				c0.14,1.31,1.05,6.98,1.67,8.33c0.62,1.35,1.1,1.42,1.6,2.72c0.51,1.3,0.53,2.63,0.53,2.63s1.19-3.85,1.58-5.17
				c0.39-1.33,0.03-7.48-0.41-8.4c-0.44-0.92,0.78-0.3,1.08-1.19c0.3-0.89-0.28-1.95-0.62-2.47c-0.34-0.52-0.16-1.6,0.62-1.51
				c0.78,0.09,4.6,0.09,6.56-1.37c1.97-1.46,2.84-1.74,4.71-1.53c1.88,0.21,2.38-0.14,2.91,1.74c0.53,1.88,1.08,2.01,3.94,6.22
				c2.86,4.21,2.5,5.68,4.71,8.86c2.22,3.18,5.22,6.5,7.78,8.21c2.56,1.72,4.78,2.84,4.78,2.84l0.28,10.41c0,0-0.11,2.79-1.81,3.57
				c-1.69,0.78-0.71,3.96-0.71,3.96s-1.71,0.91-2.31,3.82c-0.6,2.91-1.62,3.92-3.25,5.99c-1.62,2.08-3.25,4.67-4.78,5.88
				c-1.53,1.21-3.52,3.39-1.69,6.57c1.83,3.18,10.76,2.2,10.76,2.2s3.04-2.54,2.2-4.85c-0.85-2.31,1.97-1.26,2.04-2.77
				s1.72-12.15,1.72-12.15s3.27-6.34,4.26-8.51c0.98-2.17,4.17-9.11,4.19-9.38c0.02-0.27,1.05-6.5,0.64-10.78
				c-0.41-4.28-0.96-5.24-0.53-5.45c0.43-0.21,10.41,7.6,12.95,12.17c2.54,4.58,2.54,4.58,2.54,4.58s0.57,3.41,1.17,4.62
				c0.6,1.22,0.64,3.57,1.42,4.65c0.78,1.08-0.14,3.59,0.11,6.77c0.25,3.18,0,10.76-1.31,12.57c-1.3,1.81-4.89,7.98-7.41,9.17
				c-2.52,1.19-2.15,5.4,3.14,5.42c5.28,0.02,5.35-0.09,5.35-0.09s4.14-3.41,3.16-6.93c-0.98-3.52,2.98-4.32,4.21-6.06
				c1.23-1.74,1.03-5.74,0.39-8.26c-0.64-2.52,1.1-3.89-0.04-5.93c-1.15-2.04-2.11-7.3-2.11-7.37c0-0.07-1.85-8.58-1.99-10.64
				c-0.14-2.06-1.19-10.66-2.27-12.18c-1.08-1.51-5.81-8.44-6.5-9.93c-0.68-1.49-0.68-1.49-0.68-1.49l-0.05-9.38
				c0,0,3.04-8.42,2.91-12.33c-0.14-3.92,0.23-5.95,0.23-5.95l2.84,6.2c0,0,0.2,3,2.33,7.14c2.13,4.14,1.28,7.04,4.94,9.84
				c3.66,2.79,6.47,4.74,6.47,4.74s-0.66,3.58,1.81,6.78c2.47,3.19,3.67,3.02,4.43,4.08c0.75,1.06,3.5,4.5,3.54,5.36
				c0,0,1.03-4.74,0.41-6.73c-0.62-1.99,0.89-6.52-0.52-9.58s-1.1-7.93-2.3-11.67c-1.2-3.74,1.51-10.74-1.31-16.48
				c-2.81-5.73-3.09-12.43-22.65-14.01c0,0-7.52,0.14-8.93-2.26c-1.41-2.41-4.53-5.39-11.33-7.45c-6.8-2.06-15.41-2.27-15.41-2.27
				s0.65-1.85-1.37-3.6c-2.03-1.75-7.17-0.76-7.17-0.76s-3.26-1.51-5.18-1.1c-1.92,0.41-1.55-1.03-4.84-0.69
				c-3.29,0.34-3.29,0.34-3.29,0.34s1.68-6.42-4.6-9.48l13.5-19.06l0.35,0.18l0.63-0.89l-0.46-0.27l0.18-0.27l0.22,0.13l0.11-0.17
				l-0.2-0.13l6.77-9.6l0.7,0.41l0.4-0.52l-0.67-0.46l0.42-0.56l0.65,0.39l0.29-0.39l-0.62-0.37l14.02-20.15l11.74-16.89l0.48,0.24
				l0.34-0.44l-0.46-0.29l0.38-0.43l0.39,0.24l0.33-0.34l-0.43-0.36l3.16-3.78c0,0,2.3-0.92,3.17-4.72l10.74-12.2
				c0,0,10.45,4.89,12.89,15.15c2.44,10.26,3.16,13.28,2.54,16.85c-0.58,3.35-1.19,4.01-1.27,4.08c0.28-0.11,9.58-8.75,9.58-14.97
				c0,0,5.55,7.46,5.55,8.56C223.09,75.41,225.55,52.93,216.4,44.78z M37.89,160.27c-0.31-0.17-4.29-3.19-4.29-3.19l4.37-0.12
				C37.98,156.96,38.2,160.44,37.89,160.27z M38.1,153.25c0.34,0.92-5.87,0.55-5.87,0.55v-0.55l2.92-3.64h4.02
				C39.16,149.61,37.75,152.32,38.1,153.25z M37.89,147.96c-0.17,0,1.27-1.1,1.27-1.1l0.38,1.37
				C39.54,148.24,38.06,147.96,37.89,147.96z M50.57,156.37c0.28,0.55,0.43,0.91,0.33,1.11c-0.1,0.21-0.43,0.48-0.92,0.48
				c-0.5,0-1,0.07-1.31-0.33c-0.31-0.39-0.04-0.6-0.52-1.01c-0.48-0.41-0.6-0.52-0.91-0.6c-0.31-0.09-0.38,0.05-0.65-0.1
				c-0.28-0.15-0.53,0.09-0.48-0.33c0.05-0.41,0.12-0.71,0.39-0.91c0.27-0.2,0.74-0.31,0.74-0.31s1.27-0.69,1.92,0
				C49.82,155.07,50.3,155.82,50.57,156.37z M44.35,148.24c0.1,0.04,1.68-0.34,2.19,0c0.52,0.34,0.52,0.52,0.86,1
				c0.34,0.48,0.38,0.75,0.89,1.89c0.51,1.13-0.1,0.86-0.31,1.27c-0.2,0.41-0.96-0.34-1.54,0.52c-0.58,0.86-1.03,0.14-1.75,0
				c-0.72-0.14-1.27-1.03-1.79-1.85c-0.51-0.82-0.99-1.31-0.68-1.24c0.31,0.07,0.5-1.37,0.5-1.37S44.24,148.2,44.35,148.24z
				 M43.69,145.18l-0.98,1.99l-0.98-1.75L43.69,145.18z M41.77,165.91c-0.5,0-0.91-0.41-0.91-0.91s0.41-0.91,0.91-0.91
				c0.51,0,0.91,0.41,0.91,0.91S42.27,165.91,41.77,165.91z M50.93,164.61c-1.41,0-2.5-0.07-4.7-0.63c-2.2-0.57-0.98-0.53-1.7-1.75
				c-0.72-1.22-1.55-0.31-1.94,0.2c-0.39,0.52-0.75,0.17-0.57-0.92c0.19-1.1,0-1.6-0.34-2.03c-0.34-0.43-0.99-0.93-1.03-2.2
				c-0.03-1.27,1.79-1.26,1.79-1.26s2.3,3.16,3.86,3.35c1.56,0.19,2.75,2.23,3.64,2.37c0.89,0.14,1.13-0.72,1.79-0.69
				c0.65,0.04,1.25,2.28,1.56,3.4C53.6,165.57,52.34,164.61,50.93,164.61z M83.68,136.88L82,135.64c3.5-2.71,6.11-1.55,6.11-1.55
				C85.16,134.23,83.68,136.88,83.68,136.88z M106.37,139.17c-0.14,0.24-0.55-0.07-0.86-0.38c-0.31-0.31-1.68-1.41-2.16-1.72
				s-1.68-0.27-2.88-0.48c-1.2-0.2-3.29-1.2-7.59-1.55c-4.29-0.34-4.77,6.45-4.77,6.45s-2.61-2.38-2.84-2.69
				c0.05-0.34,0.22-1.35,0.64-1.94c0.52-0.72,0.86-0.28,1.99-0.17c1.13,0.11,0.79-0.79,1.44-1.35c0.65-0.55,0.72-0.65,1.61-0.65
				c0.89,0,1.06-1.41,0.96-1.72c-0.1-0.31-1.85-0.89-1.85-0.89s0.48-0.1,0.65-0.17c0.17-0.07,1.47,0,2.43,0.28
				c0.96,0.27,1.27-0.07,1.72,0c0.45,0.07,1.44,1.34,2.4,2.51c0.96,1.17,1.72,0.34,2.65,0.48c0.92,0.14,1.85-0.31,2.19,0.31
				c0.34,0.62,1.79,0.65,2.3,0.65c0.51,0,1.31-0.38,2.27,0.1C107.64,136.74,106.51,138.93,106.37,139.17z"/>
		</g>
	</g>
	<g>
		<path class="st0" d="M269.98,125.3v-0.71h20.05c3.35,0,6.3,0.46,8.86,1.37c2.56,0.91,4.69,2.16,6.39,3.74
			c1.7,1.58,2.97,3.36,3.82,5.33c0.84,1.98,1.27,4.06,1.27,6.25c0,2.13-0.39,4.19-1.18,6.16c-0.79,1.98-2.03,3.73-3.71,5.27
			c-1.69,1.54-3.9,2.76-6.64,3.67c-2.74,0.91-5.89,1.37-9.46,1.37c-1.13,0-3.32-0.17-6.56-0.5v21.08c0,4.34,2.21,6.59,6.64,6.72
			v0.66h-19.47v-0.66c1.91-0.06,3.48-0.6,4.71-1.64c1.23-1.04,1.85-2.73,1.85-5.08V132.1c0-1.41-0.22-2.59-0.66-3.53
			c-0.44-0.94-0.96-1.61-1.56-2.01c-0.6-0.4-1.26-0.7-1.99-0.89c-0.73-0.19-1.24-0.32-1.51-0.37H269.98z M282.8,126.75v28.8
			c2.13,0.39,4.23,0.58,6.31,0.58c3.96,0,7.31-1.02,10.06-3.05c2.75-2.03,4.13-5.8,4.13-11.31c0-4.54-1.21-8.27-3.63-11.19
			c-2.42-2.92-6.09-4.38-11.02-4.38C286.74,126.21,284.79,126.39,282.8,126.75z"/>
		<path class="st0" d="M393.22,185.73H380.4V175.6l-0.21-0.17c-1.77,4.12-4.42,7.14-7.95,9.05c-3.53,1.91-7.22,2.86-11.06,2.86
			c-4.34,0-8.25-1.04-11.72-3.11c-3.47-2.08-6.03-4.63-7.66-7.68c-1.16-2.16-1.9-4.41-2.2-6.74c-0.3-2.34-0.46-4.77-0.46-7.28V132.1
			c0-1.83-0.37-3.36-1.1-4.61c-0.73-1.25-2.48-1.98-5.25-2.2v-0.71h19.22v0.71c-2.82,0.33-4.62,1.15-5.4,2.45
			c-0.77,1.3-1.16,2.75-1.16,4.36v29.92c0,6.09,0.62,10.58,1.87,13.49c1.33,3.1,3.32,5.52,5.98,7.26c2.66,1.74,5.67,2.61,9.05,2.61
			c1.41,0,3.09-0.25,5.02-0.75c1.94-0.5,3.75-1.33,5.44-2.49c5.06-3.46,7.6-9.01,7.6-16.64V132.1c0-1.69-0.39-3.18-1.16-4.48
			c-0.77-1.3-2.6-2.08-5.48-2.32v-0.71h19.55v0.71c-2.82,0.14-4.63,0.93-5.44,2.37c-0.8,1.44-1.2,2.89-1.2,4.36v46.32
			c0,1.6,0.27,2.87,0.81,3.8c0.54,0.93,1.29,1.58,2.24,1.97c0.95,0.39,2.12,0.71,3.51,0.95V185.73z"/>
		<path class="st0" d="M416.91,125.46h-0.83v-0.87h21.17c3.4,0,6.29,0.53,8.65,1.58c2.37,1.05,4.21,2.39,5.52,4.01
			c1.31,1.62,2.25,3.33,2.82,5.13c0.57,1.8,0.85,3.57,0.85,5.31c0,2.21-0.46,4.34-1.39,6.37c-0.93,2.03-2.35,3.78-4.27,5.25
			c-1.92,1.47-4.32,2.46-7.2,2.99v0.17c3.65,1.77,7.03,5.29,10.13,10.54l5.52,9.34c2.49,4.18,4.49,6.82,6,7.93
			c1.51,1.11,2.99,1.73,4.46,1.87v0.66h-11.12c-0.47-0.61-0.91-1.2-1.33-1.76c-0.41-0.57-0.86-1.17-1.33-1.81
			c-0.28-0.41-0.68-1.04-1.22-1.89c-0.54-0.84-0.87-1.32-0.98-1.43l-7.3-12.08c-1.47-2.46-2.97-4.46-4.5-6
			c-1.54-1.54-2.97-2.64-4.3-3.3c-1.33-0.66-2.53-1.08-3.59-1.25c-1.07-0.17-2.32-0.25-3.76-0.25v22.37c0,4.34,2.21,6.59,6.64,6.72
			v0.66h-19.47v-0.66c1.22-0.06,2.3-0.28,3.24-0.68c0.94-0.4,1.72-1.09,2.35-2.08c0.62-0.98,0.93-2.3,0.93-3.96V132.1
			c0-2.43-0.6-4.15-1.78-5.15C419.62,125.96,418.32,125.46,416.91,125.46z M428.9,154.35h3.49c3.65,0,6.65-0.53,8.99-1.58
			c2.34-1.05,4.03-2.55,5.08-4.5c1.05-1.95,1.58-4.34,1.58-7.16c0-2.35-0.47-4.65-1.41-6.91c-0.94-2.25-2.54-4.15-4.79-5.69
			c-2.26-1.54-5.29-2.3-9.11-2.3c-1.55,0-2.82,0.12-3.82,0.37V154.35z"/>
		<path class="st0" d="M488.9,125.3v-0.71h36.44v9.63h-0.58c0-5.15-3.43-7.72-10.29-7.72h-12.74v27.77h11.21
			c2.21,0,4.19-0.36,5.93-1.08c1.74-0.72,2.74-2.37,2.99-4.94h0.62v13.86h-0.62c-0.25-1.58-0.72-2.79-1.41-3.63
			c-0.69-0.84-1.38-1.4-2.05-1.68c-0.68-0.28-1.28-0.41-1.81-0.41c-1-0.17-2.03-0.25-3.11-0.25h-11.75v21.71
			c0,1.63,0.31,3.04,0.93,4.23c0.62,1.19,2.07,1.78,4.34,1.78h9.09c2.19,0,3.98-0.32,5.4-0.95c1.41-0.64,2.52-1.52,3.34-2.66
			c0.82-1.13,1.5-2.5,2.05-4.11h0.58l-2.12,9.59H488.9v-0.66h0.83c1.3,0,2.57-0.53,3.82-1.58c1.25-1.05,1.87-2.77,1.87-5.15v-46.07
			c0-1.88-0.42-3.51-1.27-4.9c-0.84-1.38-2.32-2.08-4.42-2.08H488.9z"/>
		<path class="st0" d="M632.19,124.59v0.71c-1.25,0.25-2.35,0.71-3.32,1.39c-0.97,0.68-1.92,1.8-2.86,3.36
			c-0.94,1.56-1.92,3.83-2.95,6.79l-17.14,50.51h-0.62l-15.61-50.51h-0.21l-16.97,50.51h-0.62l-17.39-55.7
			c-0.64-1.96-1.4-3.39-2.28-4.27c-0.89-0.89-1.69-1.43-2.43-1.64c-0.73-0.21-1.64-0.35-2.72-0.44v-0.71h18.97v0.71
			c-1.66,0.11-2.91,0.61-3.76,1.49c-0.84,0.89-1.27,1.98-1.27,3.28c0,1,0.23,2.24,0.71,3.74l12.91,41.3h0.17l13.86-41.3l-0.58-1.87
			c-0.55-1.8-1.38-3.33-2.49-4.59c-1.11-1.26-2.84-1.94-5.19-2.05v-0.71h19.55v0.71c-2.21,0.03-3.65,0.6-4.3,1.7
			c-0.65,1.11-0.98,2.13-0.98,3.07c0,1.19,0.21,2.44,0.62,3.74l12.74,41.3h0.17l12.99-38.27c0.39-1.02,0.74-2.23,1.06-3.61
			c0.32-1.38,0.48-2.56,0.48-3.53c0-1.88-0.41-3.06-1.22-3.53c-0.82-0.47-2.14-0.76-3.96-0.87v-0.71H632.19z"/>
		<path class="st0" d="M714.81,155.22c0,5.73-1.42,11.05-4.25,15.98c-2.84,4.93-6.7,8.85-11.6,11.77
			c-4.9,2.92-10.32,4.38-16.27,4.38c-5.98,0-11.45-1.46-16.44-4.38c-4.98-2.92-8.9-6.85-11.77-11.81c-2.86-4.95-4.3-10.35-4.3-16.19
			c0-4.48,0.85-8.69,2.55-12.64c1.7-3.94,4.08-7.38,7.14-10.31c3.06-2.93,6.54-5.2,10.46-6.81c3.92-1.6,8-2.41,12.26-2.41
			c4.18,0,8.19,0.77,12.04,2.3c3.85,1.54,7.3,3.76,10.36,6.66c3.06,2.9,5.46,6.35,7.2,10.33
			C713.94,146.09,714.81,150.46,714.81,155.22z M707.51,155.39c0-8.13-1.44-14.5-4.32-19.09c-2.88-4.59-6.2-7.67-9.96-9.23
			c-3.76-1.56-7.3-2.34-10.62-2.34c-2.57,0-5.24,0.42-8.01,1.27c-2.77,0.84-5.46,2.39-8.07,4.63c-2.61,2.24-4.77,5.4-6.45,9.46
			c-1.69,4.07-2.53,9.09-2.53,15.07c0,5.26,0.7,9.84,2.1,13.76c1.4,3.92,3.32,7.11,5.77,9.59c2.45,2.48,5.15,4.26,8.09,5.35
			c2.95,1.09,6.01,1.64,9.19,1.64c2.85,0,5.73-0.5,8.65-1.51c2.92-1.01,5.59-2.66,8.01-4.94c2.42-2.28,4.39-5.38,5.89-9.3
			C706.75,165.81,707.51,161.03,707.51,155.39z"/>
		<path class="st0" d="M805.36,155.22c0,5.73-1.42,11.05-4.25,15.98c-2.84,4.93-6.7,8.85-11.6,11.77
			c-4.9,2.92-10.32,4.38-16.27,4.38c-5.98,0-11.45-1.46-16.44-4.38c-4.98-2.92-8.9-6.85-11.77-11.81c-2.86-4.95-4.3-10.35-4.3-16.19
			c0-4.48,0.85-8.69,2.55-12.64c1.7-3.94,4.08-7.38,7.14-10.31c3.06-2.93,6.54-5.2,10.46-6.81c3.92-1.6,8-2.41,12.26-2.41
			c4.18,0,8.19,0.77,12.04,2.3c3.85,1.54,7.3,3.76,10.36,6.66c3.06,2.9,5.46,6.35,7.2,10.33
			C804.48,146.09,805.36,150.46,805.36,155.22z M798.05,155.39c0-8.13-1.44-14.5-4.32-19.09c-2.88-4.59-6.2-7.67-9.96-9.23
			c-3.76-1.56-7.3-2.34-10.62-2.34c-2.57,0-5.24,0.42-8.01,1.27c-2.77,0.84-5.46,2.39-8.07,4.63c-2.61,2.24-4.77,5.4-6.45,9.46
			c-1.69,4.07-2.53,9.09-2.53,15.07c0,5.26,0.7,9.84,2.1,13.76c1.4,3.92,3.32,7.11,5.77,9.59c2.45,2.48,5.15,4.26,8.09,5.35
			c2.95,1.09,6.01,1.64,9.19,1.64c2.85,0,5.73-0.5,8.65-1.51c2.92-1.01,5.59-2.66,8.01-4.94c2.42-2.28,4.39-5.38,5.89-9.3
			C797.3,165.81,798.05,161.03,798.05,155.39z"/>
		<path class="st0" d="M830.03,125.3v-0.71h23.53c3.29,0,6.33,0.28,9.11,0.85c2.78,0.57,5.27,1.32,7.47,2.26
			c2.2,0.94,4.1,1.97,5.71,3.09c1.6,1.12,2.96,2.26,4.07,3.42c1.94,1.94,3.58,4.09,4.94,6.45c1.36,2.37,2.37,4.86,3.05,7.49
			c0.68,2.63,1.02,5.34,1.02,8.13c0,2.79-0.33,5.45-1,7.97c-0.66,2.52-1.62,4.85-2.86,6.99c-1.25,2.14-2.73,4.09-4.46,5.83
			c-1.73,1.74-3.74,3.32-6.04,4.73c-1.97,1.16-4.22,2.1-6.77,2.82c-2.55,0.72-5.99,1.08-10.33,1.08h-27.43v-0.66h0.83
			c1.91,0,3.33-0.72,4.28-2.16c0.94-1.44,1.41-2.96,1.41-4.57v-46.15c0-1.55-0.26-2.85-0.77-3.9c-0.51-1.05-1.2-1.81-2.05-2.28
			c-0.86-0.47-1.81-0.71-2.86-0.71H830.03z M842.86,127.5v48.43c0,2.38,0.38,4.13,1.14,5.25c0.76,1.12,1.94,1.85,3.55,2.18
			c1.6,0.33,3.96,0.5,7.06,0.5c4.43,0,8.16-0.44,11.21-1.31c3.04-0.87,5.99-2.81,8.84-5.83c2.1-2.24,3.79-4.98,5.06-8.22
			c1.27-3.24,1.91-7.15,1.91-11.75c0-3.62-0.51-7.21-1.54-10.77c-1.02-3.56-2.59-6.72-4.69-9.48c-2.35-3.13-5.37-5.58-9.07-7.35
			c-3.69-1.77-8.14-2.66-13.34-2.66C850.3,126.5,846.93,126.83,842.86,127.5z"/>
	</g>
	<g>
		<g>
			<g>
				<path class="st0" d="M271.14,213.57v-0.29h14.96v3.79h-0.27c-0.07-0.78-0.35-1.48-0.85-2.09c-0.5-0.61-1.36-0.92-2.58-0.92
					h-5.99v11.29h5.58c1.06,0,1.78-0.22,2.17-0.65c0.38-0.43,0.63-1.03,0.74-1.8h0.27v5.65h-0.27c-0.07-0.71-0.3-1.29-0.7-1.75
					c-0.4-0.46-1.14-0.69-2.21-0.69h-5.58v9.09c0,0.82,0.24,1.49,0.71,1.99c0.47,0.5,1.04,0.75,1.71,0.75h0.36v0.27h-8.04v-0.27
					h0.34c0.68,0,1.24-0.25,1.68-0.76s0.67-1.17,0.67-1.98v-18.85c0-1.07-0.24-1.8-0.73-2.19c-0.49-0.39-1.03-0.58-1.62-0.58H271.14
					z"/>
				<path class="st0" d="M327.35,238.21h-5.23v-4.13l-0.08-0.07c-0.72,1.68-1.8,2.91-3.24,3.69s-2.94,1.17-4.51,1.17
					c-1.77,0-3.37-0.42-4.78-1.27s-2.46-1.89-3.12-3.13c-0.47-0.88-0.77-1.8-0.9-2.75c-0.12-0.95-0.19-1.94-0.19-2.97v-12.4
					c0-0.74-0.15-1.37-0.45-1.88c-0.3-0.51-1.01-0.81-2.14-0.9v-0.29h7.84v0.29c-1.15,0.14-1.88,0.47-2.2,1
					c-0.32,0.53-0.47,1.12-0.47,1.78v12.2c0,2.48,0.25,4.32,0.76,5.5c0.54,1.26,1.35,2.25,2.44,2.96c1.08,0.71,2.31,1.07,3.69,1.07
					c0.58,0,1.26-0.1,2.05-0.3c0.79-0.2,1.53-0.54,2.22-1.02c2.06-1.41,3.1-3.67,3.1-6.79v-13.62c0-0.69-0.16-1.3-0.47-1.83
					c-0.32-0.53-1.06-0.85-2.23-0.95v-0.29h7.97v0.29c-1.15,0.06-1.89,0.38-2.22,0.96c-0.33,0.59-0.49,1.18-0.49,1.78v18.89
					c0,0.65,0.11,1.17,0.33,1.55c0.22,0.38,0.52,0.65,0.91,0.8c0.39,0.16,0.87,0.29,1.43,0.39V238.21z"/>
				<path class="st0" d="M343.93,213.64h-0.34v-0.36h8.63c1.39,0,2.56,0.21,3.53,0.64c0.96,0.43,1.71,0.97,2.25,1.63
					c0.54,0.66,0.92,1.36,1.15,2.09s0.35,1.46,0.35,2.17c0,0.9-0.19,1.77-0.57,2.6c-0.38,0.83-0.96,1.54-1.74,2.14
					c-0.78,0.6-1.76,1-2.94,1.22v0.07c1.49,0.72,2.87,2.15,4.13,4.3l2.25,3.81c1.02,1.7,1.83,2.78,2.45,3.23
					c0.61,0.45,1.22,0.71,1.82,0.76v0.27h-4.54c-0.19-0.25-0.37-0.49-0.54-0.72c-0.17-0.23-0.35-0.48-0.54-0.74
					c-0.11-0.17-0.28-0.43-0.5-0.77s-0.35-0.54-0.4-0.58l-2.98-4.92c-0.6-1-1.21-1.82-1.84-2.45c-0.63-0.63-1.21-1.07-1.75-1.35
					c-0.54-0.27-1.03-0.44-1.46-0.51c-0.43-0.07-0.94-0.1-1.53-0.1v9.12c0,1.77,0.9,2.69,2.71,2.74v0.27h-7.94v-0.27
					c0.5-0.02,0.94-0.12,1.32-0.28c0.38-0.16,0.7-0.45,0.96-0.85c0.25-0.4,0.38-0.94,0.38-1.62v-18.85c0-0.99-0.24-1.69-0.73-2.1
					C345.04,213.84,344.51,213.64,343.93,213.64z M348.82,225.42h1.42c1.49,0,2.71-0.21,3.66-0.64c0.95-0.43,1.64-1.04,2.07-1.84
					c0.43-0.8,0.64-1.77,0.64-2.92c0-0.96-0.19-1.9-0.58-2.82c-0.38-0.92-1.04-1.69-1.95-2.32c-0.92-0.63-2.16-0.94-3.71-0.94
					c-0.63,0-1.15,0.05-1.56,0.15V225.42z"/>
				<path class="st0" d="M406.06,213.28v0.29c-0.63,0.08-1.13,0.2-1.5,0.36c-0.37,0.16-0.65,0.49-0.85,0.96
					c-0.2,0.48-0.3,1.17-0.3,2.07v21.86h-0.17l-19.14-21.36v15.33c0,1.28,0.05,2.22,0.15,2.84c0.1,0.62,0.25,1.07,0.44,1.34
					c0.42,0.59,1.14,0.9,2.18,0.95v0.27h-6.24v-0.27c0.7-0.03,1.24-0.18,1.63-0.45c0.39-0.27,0.67-0.75,0.83-1.46
					c0.16-0.71,0.25-1.77,0.25-3.19v-16.26l-0.83-0.93c-0.73-0.83-1.32-1.36-1.76-1.58c-0.44-0.22-0.99-0.39-1.64-0.5v-0.29h4.69
					l18.85,21.12v-16.09c0-1.21-0.05-2.11-0.14-2.71c-0.1-0.6-0.35-1.08-0.76-1.44c-0.41-0.36-1.06-0.56-1.94-0.59v-0.29H406.06z"/>
				<path class="st0" d="M430.23,213.28v0.29c-0.74,0-1.38,0.21-1.9,0.63c-0.52,0.42-0.78,1.11-0.78,2.08v18.92
					c0,0.96,0.28,1.66,0.83,2.09c0.55,0.43,1.17,0.65,1.84,0.65v0.27h-7.9v-0.27c0.72,0,1.35-0.21,1.87-0.63
					c0.52-0.42,0.79-1.13,0.79-2.11v-18.92c0-1.04-0.26-1.75-0.79-2.13c-0.52-0.38-1.15-0.58-1.87-0.58v-0.29H430.23z"/>
				<path class="st0" d="M467.89,218.14h-0.27c-0.12-1.62-0.6-2.68-1.42-3.16c-0.82-0.48-1.84-0.72-3.05-0.72h-4.96v20.93
					c0,1.77,0.9,2.69,2.71,2.74v0.27h-7.94v-0.27c0.74-0.02,1.37-0.24,1.89-0.65c0.51-0.41,0.77-1.11,0.77-2.09v-20.93h-4.96
					c-1.21,0-2.22,0.24-3.04,0.72c-0.82,0.48-1.29,1.53-1.43,3.16h-0.27v-6.09h0.27c0.18,0.28,0.34,0.49,0.47,0.63
					c0.14,0.14,0.31,0.25,0.52,0.35c0.21,0.1,0.47,0.16,0.75,0.2c0.29,0.04,0.63,0.06,1.02,0.06h16.14c1.07,0,1.91-0.41,2.5-1.24
					h0.27V218.14z"/>
				<path class="st0" d="M508.2,238.21h-5.23v-4.13l-0.08-0.07c-0.72,1.68-1.8,2.91-3.24,3.69s-2.94,1.17-4.51,1.17
					c-1.77,0-3.37-0.42-4.78-1.27s-2.46-1.89-3.12-3.13c-0.47-0.88-0.77-1.8-0.9-2.75c-0.12-0.95-0.19-1.94-0.19-2.97v-12.4
					c0-0.74-0.15-1.37-0.45-1.88c-0.3-0.51-1.01-0.81-2.14-0.9v-0.29h7.84v0.29c-1.15,0.14-1.88,0.47-2.2,1
					c-0.32,0.53-0.47,1.12-0.47,1.78v12.2c0,2.48,0.25,4.32,0.76,5.5c0.54,1.26,1.35,2.25,2.44,2.96c1.08,0.71,2.31,1.07,3.69,1.07
					c0.58,0,1.26-0.1,2.05-0.3c0.79-0.2,1.53-0.54,2.22-1.02c2.06-1.41,3.1-3.67,3.1-6.79v-13.62c0-0.69-0.16-1.3-0.47-1.83
					c-0.32-0.53-1.06-0.85-2.23-0.95v-0.29h7.97v0.29c-1.15,0.06-1.89,0.38-2.22,0.96c-0.33,0.59-0.49,1.18-0.49,1.78v18.89
					c0,0.65,0.11,1.17,0.33,1.55c0.22,0.38,0.52,0.65,0.91,0.8c0.39,0.16,0.87,0.29,1.43,0.39V238.21z"/>
				<path class="st0" d="M524.79,213.64h-0.34v-0.36h8.63c1.39,0,2.56,0.21,3.53,0.64c0.96,0.43,1.71,0.97,2.25,1.63
					c0.54,0.66,0.92,1.36,1.15,2.09s0.35,1.46,0.35,2.17c0,0.9-0.19,1.77-0.57,2.6c-0.38,0.83-0.96,1.54-1.74,2.14
					c-0.78,0.6-1.76,1-2.94,1.22v0.07c1.49,0.72,2.87,2.15,4.13,4.3l2.25,3.81c1.02,1.7,1.83,2.78,2.45,3.23
					c0.61,0.45,1.22,0.71,1.82,0.76v0.27h-4.54c-0.19-0.25-0.37-0.49-0.54-0.72c-0.17-0.23-0.35-0.48-0.54-0.74
					c-0.11-0.17-0.28-0.43-0.5-0.77c-0.22-0.34-0.35-0.54-0.4-0.58l-2.98-4.92c-0.6-1-1.21-1.82-1.84-2.45
					c-0.63-0.63-1.21-1.07-1.75-1.35c-0.54-0.27-1.03-0.44-1.46-0.51s-0.94-0.1-1.53-0.1v9.12c0,1.77,0.9,2.69,2.71,2.74v0.27h-7.94
					v-0.27c0.5-0.02,0.94-0.12,1.32-0.28c0.38-0.16,0.7-0.45,0.96-0.85c0.25-0.4,0.38-0.94,0.38-1.62v-18.85
					c0-0.99-0.24-1.69-0.73-2.1C525.89,213.84,525.36,213.64,524.79,213.64z M529.68,225.42h1.42c1.49,0,2.71-0.21,3.66-0.64
					c0.95-0.43,1.64-1.04,2.07-1.84c0.43-0.8,0.64-1.77,0.64-2.92c0-0.96-0.19-1.9-0.58-2.82c-0.38-0.92-1.04-1.69-1.95-2.32
					c-0.92-0.63-2.16-0.94-3.71-0.94c-0.63,0-1.15,0.05-1.56,0.15V225.42z"/>
				<path class="st0" d="M561.08,213.57v-0.29h14.86v3.93h-0.24c0-2.1-1.4-3.15-4.2-3.15h-5.2v11.32h4.57c0.9,0,1.71-0.15,2.42-0.44
					c0.71-0.29,1.12-0.96,1.22-2.01h0.25v5.65h-0.25c-0.1-0.64-0.29-1.14-0.58-1.48c-0.28-0.34-0.56-0.57-0.84-0.69
					c-0.28-0.11-0.52-0.17-0.74-0.17c-0.41-0.07-0.83-0.1-1.27-0.1h-4.79v8.85c0,0.67,0.13,1.24,0.38,1.73
					c0.25,0.49,0.84,0.73,1.77,0.73h3.71c0.89,0,1.62-0.13,2.2-0.39c0.58-0.26,1.03-0.62,1.36-1.08c0.33-0.46,0.61-1.02,0.84-1.68
					h0.24l-0.86,3.91h-14.86v-0.27h0.34c0.53,0,1.05-0.21,1.56-0.64c0.51-0.43,0.76-1.13,0.76-2.1v-18.78c0-0.77-0.17-1.43-0.52-2
					c-0.34-0.56-0.95-0.85-1.8-0.85H561.08z"/>
				<path class="st0" d="M641.18,221.88v0.29c-0.84,0.03-1.51,0.2-2.03,0.51c-0.52,0.3-0.98,0.78-1.38,1.44
					c-0.4,0.65-0.82,1.53-1.24,2.62c-0.49,1.24-0.9,2.23-1.25,2.97c-0.35,0.74-0.65,1.32-0.91,1.73c-0.26,0.42-0.51,0.79-0.74,1.12
					c0.08,0.07,0.5,0.45,1.27,1.15c0.77,0.7,1.42,1.3,1.96,1.79c1.23,1.04,2.19,1.7,2.87,1.98c0.68,0.28,1.37,0.43,2.06,0.46v0.27
					h-5.28c-1.94-1.55-3.38-2.77-4.33-3.67c-0.64,0.85-1.62,1.76-2.94,2.73c-1.31,0.98-2.86,1.46-4.65,1.46
					c-0.96,0-1.84-0.16-2.65-0.49c-0.81-0.33-1.52-0.8-2.14-1.41s-1.09-1.3-1.42-2.06c-0.33-0.76-0.49-1.55-0.49-2.38
					c0-1.6,0.49-3.03,1.47-4.29c0.98-1.26,2.18-2.35,3.59-3.27l-0.24-0.24c-1.03-1.15-1.83-2.21-2.41-3.17
					c-0.58-0.96-0.87-1.97-0.87-3.02c0-1.02,0.27-1.97,0.82-2.87c0.55-0.9,1.31-1.62,2.28-2.16c0.97-0.54,2.06-0.81,3.27-0.81
					c1.58,0,2.85,0.44,3.82,1.32c0.97,0.88,1.46,1.96,1.46,3.23c0,1.43-0.56,2.71-1.67,3.82c-1.11,1.11-2.45,2.15-4.02,3.11
					c0.58,0.67,1.48,1.62,2.71,2.88l2.45,2.57c0.96,1,1.8,1.84,2.54,2.52c0.6-0.92,1.24-2.24,1.94-3.94
					c0.69-1.7,1.04-3.09,1.04-4.16c0-0.7-0.18-1.16-0.55-1.37c-0.37-0.21-0.83-0.33-1.4-0.36v-0.29H641.18z M623.39,225.42
					c-2.34,1.57-3.5,3.42-3.5,5.55c0,1.09,0.3,2.1,0.9,3c0.6,0.91,1.38,1.62,2.34,2.12c0.96,0.51,1.93,0.76,2.91,0.76
					c0.86,0,1.64-0.15,2.35-0.46c0.71-0.3,1.31-0.65,1.79-1.05c0.48-0.39,0.98-0.84,1.47-1.34c-0.97-0.92-1.71-1.64-2.23-2.16
					c-0.51-0.51-1.06-1.06-1.62-1.65c-0.57-0.59-1.17-1.22-1.79-1.9C625.38,227.63,624.51,226.67,623.39,225.42z M624.92,223.45
					c1.2-0.77,2.17-1.57,2.91-2.42c0.74-0.85,1.12-1.88,1.12-3.1c0-0.72-0.17-1.42-0.51-2.1c-0.34-0.68-0.83-1.22-1.47-1.64
					c-0.64-0.42-1.37-0.63-2.18-0.63c-1.13,0-1.99,0.33-2.58,1c-0.59,0.67-0.89,1.46-0.89,2.37c0,0.62,0.18,1.33,0.55,2.14
					c0.37,0.81,0.83,1.59,1.39,2.34C623.81,222.18,624.36,222.86,624.92,223.45z"/>
				<path class="st0" d="M682.65,213.57v-0.29h9.6c1.34,0,2.58,0.12,3.71,0.35c1.13,0.23,2.15,0.54,3.05,0.92
					c0.9,0.38,1.67,0.8,2.33,1.26s1.21,0.92,1.66,1.4c0.79,0.79,1.46,1.67,2.01,2.63c0.55,0.96,0.97,1.98,1.24,3.05
					c0.28,1.07,0.41,2.18,0.41,3.32c0,1.14-0.14,2.22-0.41,3.25c-0.27,1.03-0.66,1.98-1.17,2.85c-0.51,0.87-1.11,1.67-1.82,2.38
					c-0.71,0.71-1.53,1.35-2.46,1.93c-0.8,0.47-1.72,0.86-2.76,1.15c-1.04,0.29-2.44,0.44-4.21,0.44h-11.19v-0.27h0.34
					c0.78,0,1.36-0.29,1.74-0.88c0.38-0.59,0.58-1.21,0.58-1.86v-18.82c0-0.63-0.1-1.16-0.31-1.59c-0.21-0.43-0.49-0.74-0.84-0.93
					c-0.35-0.19-0.74-0.29-1.17-0.29H682.65z M687.88,214.47v19.75c0,0.97,0.16,1.68,0.47,2.14s0.79,0.75,1.45,0.89
					c0.65,0.14,1.61,0.2,2.88,0.2c1.8,0,3.33-0.18,4.57-0.53c1.24-0.36,2.44-1.15,3.6-2.38c0.86-0.91,1.55-2.03,2.06-3.35
					c0.52-1.32,0.78-2.92,0.78-4.79c0-1.48-0.21-2.94-0.63-4.39c-0.42-1.45-1.05-2.74-1.91-3.87c-0.96-1.27-2.19-2.27-3.7-3
					c-1.51-0.72-3.32-1.08-5.44-1.08C690.91,214.06,689.53,214.2,687.88,214.47z"/>
				<path class="st0" d="M723.5,213.57v-0.29h14.86v3.93h-0.24c0-2.1-1.4-3.15-4.2-3.15h-5.2v11.32h4.57c0.9,0,1.71-0.15,2.42-0.44
					c0.71-0.29,1.12-0.96,1.22-2.01h0.25v5.65h-0.25c-0.1-0.64-0.29-1.14-0.58-1.48c-0.28-0.34-0.56-0.57-0.84-0.69
					c-0.28-0.11-0.52-0.17-0.74-0.17c-0.41-0.07-0.83-0.1-1.27-0.1h-4.79v8.85c0,0.67,0.13,1.24,0.38,1.73
					c0.25,0.49,0.84,0.73,1.77,0.73h3.71c0.89,0,1.62-0.13,2.2-0.39c0.58-0.26,1.03-0.62,1.36-1.08c0.33-0.46,0.61-1.02,0.84-1.68
					h0.24l-0.86,3.91H723.5v-0.27h0.34c0.53,0,1.05-0.21,1.56-0.64c0.51-0.43,0.76-1.13,0.76-2.1v-18.78c0-0.77-0.17-1.43-0.52-2
					c-0.34-0.56-0.95-0.85-1.8-0.85H723.5z"/>
				<path class="st0" d="M777.56,218.87h-0.29c-0.21-1.22-0.79-2.25-1.72-3.1c-0.93-0.85-2-1.46-3.21-1.85
					c-1.21-0.39-2.34-0.58-3.38-0.58c-1.43,0-2.78,0.3-4.04,0.91c-1.26,0.6-2.34,1.46-3.26,2.56c-0.91,1.1-1.62,2.42-2.13,3.96
					c-0.51,1.54-0.76,3.21-0.76,5.02c0,1.75,0.25,3.37,0.74,4.87c0.49,1.49,1.21,2.79,2.15,3.89c0.94,1.1,2.03,1.93,3.27,2.5
					c1.24,0.56,2.62,0.85,4.13,0.85c1.26,0,2.65-0.26,4.16-0.77c1.51-0.51,2.88-1.37,4.1-2.56v0.96c-1.5,1.16-2.87,2.01-4.12,2.56
					c-1.25,0.54-2.8,0.81-4.66,0.81c-1.96,0-3.75-0.36-5.37-1.07c-1.62-0.72-2.99-1.68-4.1-2.9c-1.12-1.22-1.96-2.59-2.54-4.11
					c-0.58-1.52-0.86-3.09-0.86-4.7c0-2.43,0.6-4.68,1.79-6.76c1.2-2.08,2.81-3.73,4.86-4.94c2.04-1.21,4.26-1.82,6.65-1.82
					c1.48,0,3.05,0.22,4.72,0.66l1.76,0.49c0.34,0.07,0.63,0.1,0.86,0.1c0.44,0,0.73-0.07,0.88-0.19c0.15-0.13,0.26-0.36,0.34-0.7
					h0.27L777.56,218.87z"/>
				<path class="st0" d="M820.75,225.77c0,2.34-0.58,4.51-1.73,6.52c-1.16,2.01-2.73,3.61-4.73,4.8c-2,1.19-4.21,1.79-6.63,1.79
					c-2.44,0-4.67-0.6-6.7-1.79c-2.03-1.19-3.63-2.79-4.8-4.81c-1.17-2.02-1.75-4.22-1.75-6.6c0-1.83,0.35-3.55,1.04-5.15
					s1.66-3.01,2.91-4.21c1.25-1.2,2.67-2.12,4.26-2.78c1.6-0.65,3.26-0.98,5-0.98c1.7,0,3.34,0.31,4.91,0.94
					c1.57,0.63,2.98,1.53,4.22,2.72c1.25,1.18,2.23,2.59,2.94,4.21C820.39,222.05,820.75,223.83,820.75,225.77z M817.77,225.84
					c0-3.32-0.59-5.91-1.76-7.78c-1.17-1.87-2.53-3.13-4.06-3.77c-1.53-0.64-2.98-0.96-4.33-0.96c-1.05,0-2.14,0.17-3.27,0.52
					c-1.13,0.34-2.23,0.97-3.29,1.89c-1.07,0.91-1.94,2.2-2.63,3.86c-0.69,1.66-1.03,3.71-1.03,6.14c0,2.14,0.28,4.01,0.85,5.61
					c0.57,1.6,1.35,2.9,2.35,3.91c1,1.01,2.1,1.74,3.3,2.18c1.2,0.45,2.45,0.67,3.75,0.67c1.16,0,2.34-0.21,3.53-0.62
					c1.19-0.41,2.28-1.08,3.27-2.01c0.99-0.93,1.79-2.19,2.4-3.79C817.46,230.09,817.77,228.14,817.77,225.84z"/>
				<path class="st0" d="M837.98,213.64h-0.34v-0.36h8.63c1.39,0,2.56,0.21,3.53,0.64c0.96,0.43,1.71,0.97,2.25,1.63
					c0.54,0.66,0.92,1.36,1.15,2.09s0.35,1.46,0.35,2.17c0,0.9-0.19,1.77-0.57,2.6c-0.38,0.83-0.96,1.54-1.74,2.14
					c-0.78,0.6-1.76,1-2.94,1.22v0.07c1.49,0.72,2.87,2.15,4.13,4.3l2.25,3.81c1.02,1.7,1.83,2.78,2.45,3.23
					c0.61,0.45,1.22,0.71,1.82,0.76v0.27h-4.54c-0.19-0.25-0.37-0.49-0.54-0.72c-0.17-0.23-0.35-0.48-0.54-0.74
					c-0.11-0.17-0.28-0.43-0.5-0.77c-0.22-0.34-0.35-0.54-0.4-0.58l-2.98-4.92c-0.6-1-1.21-1.82-1.84-2.45
					c-0.63-0.63-1.21-1.07-1.75-1.35c-0.54-0.27-1.03-0.44-1.46-0.51s-0.94-0.1-1.53-0.1v9.12c0,1.77,0.9,2.69,2.71,2.74v0.27h-7.94
					v-0.27c0.5-0.02,0.94-0.12,1.32-0.28c0.38-0.16,0.7-0.45,0.96-0.85c0.25-0.4,0.38-0.94,0.38-1.62v-18.85
					c0-0.99-0.24-1.69-0.73-2.1C839.08,213.84,838.55,213.64,837.98,213.64z M842.87,225.42h1.42c1.49,0,2.71-0.21,3.66-0.64
					c0.95-0.43,1.64-1.04,2.07-1.84c0.43-0.8,0.64-1.77,0.64-2.92c0-0.96-0.19-1.9-0.58-2.82c-0.38-0.92-1.04-1.69-1.95-2.32
					c-0.92-0.63-2.16-0.94-3.71-0.94c-0.63,0-1.15,0.05-1.56,0.15V225.42z"/>
				<path class="st0" d="M874.27,213.57v-0.29h14.86v3.93h-0.24c0-2.1-1.4-3.15-4.2-3.15h-5.2v11.32h4.57c0.9,0,1.71-0.15,2.42-0.44
					s1.12-0.96,1.22-2.01h0.25v5.65h-0.25c-0.1-0.64-0.29-1.14-0.58-1.48c-0.28-0.34-0.56-0.57-0.84-0.69
					c-0.28-0.11-0.52-0.17-0.74-0.17c-0.41-0.07-0.83-0.1-1.27-0.1h-4.79v8.85c0,0.67,0.13,1.24,0.38,1.73
					c0.25,0.49,0.84,0.73,1.77,0.73h3.71c0.89,0,1.62-0.13,2.2-0.39c0.58-0.26,1.03-0.62,1.36-1.08c0.33-0.46,0.61-1.02,0.84-1.68
					h0.24l-0.86,3.91h-14.86v-0.27h0.34c0.53,0,1.05-0.21,1.56-0.64c0.51-0.43,0.76-1.13,0.76-2.1v-18.78c0-0.77-0.17-1.43-0.52-2
					c-0.34-0.56-0.95-0.85-1.8-0.85H874.27z"/>
			</g>
		</g>
	</g>
</g>
</svg>
