<svg xmlns="http://www.w3.org/2000/svg" xmlns:xlink="http://www.w3.org/1999/xlink" id="Layer_1" x="0px" y="0px" viewBox="0 0 900 300" style="enable-background:new 0 0 900 300;" xml:space="preserve"><style type="text/css">	.st0{fill:#FFFFFF;}</style><g>	<g>		<g>			<path class="st0" d="M216.4,44.8c-9.1-8.2-14.1-12.1-14.1-12.1l2.2-3l4.2-7.2l0.1-3l-2.9,0.8L199,31.1l-18.3,24.8    c0,0-3.4,1.6-3.9,4.3l-2.3,3.9l-0.7-0.5l-0.5,0.8l0.6,0.4l-0.3,0.3l-0.6-0.3l-0.4,0.7l0.6,0.4l-26.2,34.7l-0.9-0.6l-0.6,0.8    l0.9,0.6l-0.5,0.5l-1-0.5l-0.6,0.9l0.7,0.6l-7.9,10.6c0,0-0.3-7.3-1.2-8.5c-0.9-1.2,0.6-1.9-0.3-2.5c-0.9-0.6-2.5-0.3-3.1-1    c-0.6-0.7-2.3-2.2-2.9-4.8c-0.6-2.7,0.4-3.5,0.7-4.4s1.1-3.3-0.3-5.3c-1.5-2-1.6-4.6-0.2-5.5s3.9-1.7,4-4.5    c0.1-2.8,0.1-4.4-0.3-5.3c-0.3-0.9,0.1-5.5,0.2-5.9c0.2-0.5-0.2-3,0.3-4.5c0.5-1.5,1.1-1.6,1.1-1.7c0-0.1-2.9-4.9-2.9-4.9    l-9.8-0.4c0,0-2,0.3-2,2.3s0.3,7.2,0.9,8.1c0.6,0.9-1.3,0.7-1.8,0.7s-3.2-0.6-3.8,1.9s-1.4,3.8-3.1,4.2c-1.8,0.4-4,0-4.5,0.9    c-0.5,0.8-0.8,2.5-0.6,2.8c0.3,0.4,0.6,1,0.5,1.6s-1.2,2.1,0.4,4.2c1.6,2.1,1.9,2.1,2.2,3.4s-0.9,2.2,1.5,3.9    c2.3,1.7,2.9,1.5,2.9,1.5s0.8,1.8,0.2,2.1c-0.6,0.2-1.3,1.3-0.4,2.2c0.8,0.9,1.3,0.7,1.3,0.7c-0.1,0.2-3.3,6,2.6,6.6l-1.8,4.4    c0,0-4.3,1.4-4.9,6.4c-0.6,5.1-2.2,10.8-4.1,11.2c-1.9,0.3-1.7-0.3-4.1,0.7s-3,1.7-4.1,0.9c-1.1-0.8-0.7-1.1-3.1-1.8    c-2.4-0.6-3.1-1.4-4.4-0.1s-2.6,1.6-2.5,3.8c0.2,2.2-0.1,3.6-0.8,3.8s-1,0.2-1.4,0.2c-0.4-0.1-1.4-0.1-1.7,0.3s-1.3,1.2-1.9,1.2    c-0.6,0-1.5,0.5-1.7,0.9c-0.2,0.4-1.5,1.1-2.2,0.7c-0.8-0.4-13.9-15.7-23.7-17.4s-10.6-0.9-10.6-0.9L42,111c0,0,1.3-2.8-0.6-5.1    l-1-1c0,0-1.2,1.2-0.9,2.3c0.3,1.1-0.5,1.9-1.3,2.6c-0.8,0.7-0.7,1.8-0.7,1.8s-1.1-0.9-1-1.8c0.1-1-0.1-3.4-0.8-4    c0,0-2.9,0.6-2.5,4.8c0.4,4.1,0.9,4.2,0.3,4.4c-0.6,0.3-3.3,0.4-4.5,4.5s-0.9,6.1-1.4,7.4c-0.5,1.3-2.3,4.2-2.6,5.5    c-0.3,1.3-1.6,4.5-2.6,4.7s-3,0.8-3.2,2c0,0-0.2,0.6,0.4,1c0.5,0.5-0.6,2.5-0.6,2.5s-2.9,4.2-4,5.6c-1.1,1.4-2,4.8-0.2,6.3    c1.8,1.6,9.4,4.1,10.9,4.4c1.5,0.4,2.5-0.9,2.8-0.9c0.3,0,2.4-0.2,3,0.3c0.6,0.5,4.8,4.2,5.6,4.3c0.8,0.1,0.5,0,0.9,1    s2.2,4.4,4.1,4.3c1.9-0.1,2.6-1.7,2.9-2c0.3-0.3,1.6-0.2,2.2,0.3c0.6,0.5,2.4,0.9,2.9,0.6s0.4-0.4,0.9-0.3s1.3-0.2,1.8,0    c0.6,0.2,2.1,1,3.2,2.8c1.1,1.8,2.9,6.8,5,8.1c0,0,1.2,0.3,0.4,2.8c-0.7,2.6-0.2,7.6-0.2,7.6s-0.5,3.4,0.3,5.3    c0.8,1.9,1.7,4.6,2.2,5.3c0.4,0.7,2.5,5.1,2.5,5.1s2.4,4.4,2.5,4.9c0.1,0.6,1.3,2.5,1.4,5.8c0.1,3.4,0.7,8.7,0.6,10    c-0.1,1.3,1.7,15.1,1.7,15.1s0.6,5.1,0.2,6c-0.3,0.9-0.6,1.9-0.3,3.8s-0.1,3-0.4,3.8c-0.3,0.9-0.1,3-0.1,3s-2.3,1.9-2.6,2.9    c-0.2,1,0,3.2,0,3.2s-1.5,0.7-2.2,2.1c-0.7,1.4-0.4,2.6-1.3,3.3c-0.9,0.7-3.3,4.4-3.3,4.4s-1.1,2.2-1.2,2.7s-0.4,2-1.1,2.4    s-2.1,2.3-1.6,3.6h9.7c0,0,4.1-1.3,3.6-4.5c-0.5-3.1,4.9-4.3,4.8-7.5c0-3.2-0.2-3.7,0.5-4.2c0.7-0.5,0-3.3,0-3.3l1.3-12.5    c0,0,0.8-5.1,0.8-6.1s1.1-0.4,1.2-1.2c0.1-0.8-0.8-1.8,0.2-1.8c0.9,0,2.8,1.4,3.7,3.5s1.8,2.6,1.9,5.4c0.1,2.8,0.5,5.9,0.2,6.7    c-0.2,0.8-0.7,4.7-1.3,5.9s-2.1,5.3-3.8,6.3c-1.7,1-3.6,3.1-2.2,5.6c1.5,2.5,9,1.8,9,1.7c0.1-0.1,2-2.7,2-2.7l0.3-4    c0,0,3.4-1.8,3.7-4.1c0.3-2.4,0.1-6.5,0.1-6.5s-0.6,0.1-0.8-1.8c-0.2-1.9-0.6-8.1-1.1-9.4c-0.5-1.3-1-0.8-1.2-2.2    c-0.2-1.5-1.4-6.6-1.2-8.9s-0.1-5-0.3-5.8c-0.2-0.9,0.5-2.9,0.4-4.8s0.1-5.1,0.6-7.6c0.5-2.4,0.6-6.8,3.7-9.5    c3.1-2.8,3.5-2.4,3.9-1.8s-0.2,2-1.1,2.2c-0.9,0.3-2.8,0.2-3.6,1.6c-0.8,1.4-1.8,3.9,1.6,4.3c3.5,0.4,11.5-0.4,12.7-0.3    c0,0,0.2-3.1,1.2-3.2c1.1-0.1,1.1,3.5,1.1,3.5l3-0.1l-0.1-4c0,0-0.8-1.2-0.6-2.8c0.1-1.6,1.1-1.5,1.3-1.5s6.3-0.9,6.9-1.5    c0.6-0.6,1.3,1.2,1.5,2.5c0.1,1.3,1.1,7,1.7,8.3c0.6,1.4,1.1,1.4,1.6,2.7c0.5,1.3,0.5,2.6,0.5,2.6s1.2-3.9,1.6-5.2    c0.4-1.3,0-7.5-0.4-8.4s0.8-0.3,1.1-1.2s-0.3-1.9-0.6-2.5c-0.3-0.5-0.2-1.6,0.6-1.5c0.8,0.1,4.6,0.1,6.6-1.4    c2-1.5,2.8-1.7,4.7-1.5c1.9,0.2,2.4-0.1,2.9,1.7s1.1,2,3.9,6.2s2.5,5.7,4.7,8.9c2.2,3.2,5.2,6.5,7.8,8.2c2.6,1.7,4.8,2.8,4.8,2.8    l0.3,10.4c0,0-0.1,2.8-1.8,3.6c-1.7,0.8-0.7,4-0.7,4s-1.7,0.9-2.3,3.8c-0.6,2.9-1.6,3.9-3.2,6c-1.6,2.1-3.2,4.7-4.8,5.9    s-3.5,3.4-1.7,6.6s10.8,2.2,10.8,2.2s3-2.5,2.2-4.9c-0.9-2.3,2-1.3,2-2.8s1.7-12.1,1.7-12.1s3.3-6.3,4.3-8.5    c1-2.2,4.2-9.1,4.2-9.4s1.1-6.5,0.6-10.8s-1-5.2-0.5-5.4c0.4-0.2,10.4,7.6,12.9,12.2c2.5,4.6,2.5,4.6,2.5,4.6s0.6,3.4,1.2,4.6    c0.6,1.2,0.6,3.6,1.4,4.6c0.8,1.1-0.1,3.6,0.1,6.8c0.2,3.2,0,10.8-1.3,12.6c-1.3,1.8-4.9,8-7.4,9.2s-2.1,5.4,3.1,5.4    c5.3,0,5.4-0.1,5.4-0.1s4.1-3.4,3.2-6.9s3-4.3,4.2-6.1c1.2-1.7,1-5.7,0.4-8.3c-0.6-2.5,1.1-3.9,0-5.9c-1.1-2-2.1-7.3-2.1-7.4    c0-0.1-1.9-8.6-2-10.6s-1.2-10.7-2.3-12.2c-1.1-1.5-5.8-8.4-6.5-9.9c-0.7-1.5-0.7-1.5-0.7-1.5l-0.1-9.4c0,0,3-8.4,2.9-12.3    c-0.1-3.9,0.2-5.9,0.2-5.9l2.8,6.2c0,0,0.2,3,2.3,7.1s1.3,7,4.9,9.8c3.7,2.8,6.5,4.7,6.5,4.7s-0.7,3.6,1.8,6.8    c2.5,3.2,3.7,3,4.4,4.1c0.8,1.1,3.5,4.5,3.5,5.4c0,0,1-4.7,0.4-6.7c-0.6-2,0.9-6.5-0.5-9.6s-1.1-7.9-2.3-11.7s1.5-10.7-1.3-16.5    c-2.8-5.7-3.1-12.4-22.6-14c0,0-7.5,0.1-8.9-2.3c-1.4-2.4-4.5-5.4-11.3-7.4s-15.4-2.3-15.4-2.3s0.6-1.9-1.4-3.6    c-2-1.8-7.2-0.8-7.2-0.8s-3.3-1.5-5.2-1.1c-1.9,0.4-1.6-1-4.8-0.7s-3.3,0.3-3.3,0.3s1.7-6.4-4.6-9.5l13.5-19.1l0.4,0.2l0.6-0.9    l-0.5-0.3l0.2-0.3l0.2,0.1l0.1-0.2l-0.2-0.1l6.8-9.6l0.7,0.4l0.4-0.5l-0.7-0.5l0.4-0.6l0.6,0.4l0.3-0.4l-0.6-0.4l14-20.2    l11.7-16.9l0.5,0.2l0.3-0.4l-0.5-0.3l0.4-0.4l0.4,0.2l0.3-0.3l-0.4-0.4l3.2-3.8c0,0,2.3-0.9,3.2-4.7l10.7-12.2    c0,0,10.4,4.9,12.9,15.1s3.2,13.3,2.5,16.8c-0.6,3.3-1.2,4-1.3,4.1c0.3-0.1,9.6-8.8,9.6-15c0,0,5.6,7.5,5.6,8.6    C223.1,75.4,225.6,52.9,216.4,44.8z M37.9,160.3c-0.3-0.2-4.3-3.2-4.3-3.2L38,157C38,157,38.2,160.4,37.9,160.3z M38.1,153.2    c0.3,0.9-5.9,0.6-5.9,0.6v-0.6l2.9-3.6h4C39.2,149.6,37.8,152.3,38.1,153.2z M37.9,148c-0.2,0,1.3-1.1,1.3-1.1l0.4,1.4    C39.5,148.2,38.1,148,37.9,148z M50.6,156.4c0.3,0.6,0.4,0.9,0.3,1.1c-0.1,0.2-0.4,0.5-0.9,0.5c-0.5,0-1,0.1-1.3-0.3    c-0.3-0.4,0-0.6-0.5-1c-0.5-0.4-0.6-0.5-0.9-0.6c-0.3-0.1-0.4,0.1-0.7-0.1c-0.3-0.1-0.5,0.1-0.5-0.3c0-0.4,0.1-0.7,0.4-0.9    s0.7-0.3,0.7-0.3s1.3-0.7,1.9,0C49.8,155.1,50.3,155.8,50.6,156.4z M44.3,148.2c0.1,0,1.7-0.3,2.2,0c0.5,0.3,0.5,0.5,0.9,1    s0.4,0.8,0.9,1.9c0.5,1.1-0.1,0.9-0.3,1.3c-0.2,0.4-1-0.3-1.5,0.5s-1,0.1-1.8,0s-1.3-1-1.8-1.9c-0.5-0.8-1-1.3-0.7-1.2    c0.3,0.1,0.5-1.4,0.5-1.4S44.2,148.2,44.3,148.2z M43.7,145.2l-1,2l-1-1.8L43.7,145.2z M41.8,165.9c-0.5,0-0.9-0.4-0.9-0.9    s0.4-0.9,0.9-0.9c0.5,0,0.9,0.4,0.9,0.9S42.3,165.9,41.8,165.9z M50.9,164.6c-1.4,0-2.5-0.1-4.7-0.6c-2.2-0.6-1-0.5-1.7-1.8    s-1.5-0.3-1.9,0.2c-0.4,0.5-0.8,0.2-0.6-0.9c0.2-1.1,0-1.6-0.3-2s-1-0.9-1-2.2c0-1.3,1.8-1.3,1.8-1.3s2.3,3.2,3.9,3.4    s2.8,2.2,3.6,2.4s1.1-0.7,1.8-0.7c0.7,0,1.2,2.3,1.6,3.4C53.6,165.6,52.3,164.6,50.9,164.6z M83.7,136.9l-1.7-1.2    c3.5-2.7,6.1-1.6,6.1-1.6C85.2,134.2,83.7,136.9,83.7,136.9z M106.4,139.2c-0.1,0.2-0.6-0.1-0.9-0.4s-1.7-1.4-2.2-1.7    s-1.7-0.3-2.9-0.5c-1.2-0.2-3.3-1.2-7.6-1.6c-4.3-0.3-4.8,6.4-4.8,6.4s-2.6-2.4-2.8-2.7c0.1-0.3,0.2-1.4,0.6-1.9    c0.5-0.7,0.9-0.3,2-0.2s0.8-0.8,1.4-1.4c0.7-0.6,0.7-0.6,1.6-0.6s1.1-1.4,1-1.7s-1.8-0.9-1.8-0.9s0.5-0.1,0.7-0.2    c0.2-0.1,1.5,0,2.4,0.3c1,0.3,1.3-0.1,1.7,0c0.4,0.1,1.4,1.3,2.4,2.5s1.7,0.3,2.7,0.5c0.9,0.1,1.8-0.3,2.2,0.3    c0.3,0.6,1.8,0.6,2.3,0.6s1.3-0.4,2.3,0.1C107.6,136.7,106.5,138.9,106.4,139.2z"></path>		</g>	</g>	<g>		<path class="st0" d="M270,125.3v-0.7h20c3.4,0,6.3,0.5,8.9,1.4s4.7,2.2,6.4,3.7s3,3.4,3.8,5.3c0.8,2,1.3,4.1,1.3,6.2   c0,2.1-0.4,4.2-1.2,6.2c-0.8,2-2,3.7-3.7,5.3c-1.7,1.5-3.9,2.8-6.6,3.7c-2.7,0.9-5.9,1.4-9.5,1.4c-1.1,0-3.3-0.2-6.6-0.5v21.1   c0,4.3,2.2,6.6,6.6,6.7v0.7H270v-0.7c1.9-0.1,3.5-0.6,4.7-1.6c1.2-1,1.9-2.7,1.9-5.1v-46.2c0-1.4-0.2-2.6-0.7-3.5s-1-1.6-1.6-2   s-1.3-0.7-2-0.9c-0.7-0.2-1.2-0.3-1.5-0.4H270z M282.8,126.8v28.8c2.1,0.4,4.2,0.6,6.3,0.6c4,0,7.3-1,10.1-3.1s4.1-5.8,4.1-11.3   c0-4.5-1.2-8.3-3.6-11.2s-6.1-4.4-11-4.4C286.7,126.2,284.8,126.4,282.8,126.8z"></path>		<path class="st0" d="M393.2,185.7h-12.8v-10.1l-0.2-0.2c-1.8,4.1-4.4,7.1-8,9.1s-7.2,2.9-11.1,2.9c-4.3,0-8.2-1-11.7-3.1   c-3.5-2.1-6-4.6-7.7-7.7c-1.2-2.2-1.9-4.4-2.2-6.7c-0.3-2.3-0.5-4.8-0.5-7.3v-30.4c0-1.8-0.4-3.4-1.1-4.6s-2.5-2-5.2-2.2v-0.7H352   v0.7c-2.8,0.3-4.6,1.2-5.4,2.4c-0.8,1.3-1.2,2.8-1.2,4.4V162c0,6.1,0.6,10.6,1.9,13.5c1.3,3.1,3.3,5.5,6,7.3   c2.7,1.7,5.7,2.6,9,2.6c1.4,0,3.1-0.2,5-0.8c1.9-0.5,3.8-1.3,5.4-2.5c5.1-3.5,7.6-9,7.6-16.6v-33.4c0-1.7-0.4-3.2-1.2-4.5   c-0.8-1.3-2.6-2.1-5.5-2.3v-0.7h19.5v0.7c-2.8,0.1-4.6,0.9-5.4,2.4c-0.8,1.4-1.2,2.9-1.2,4.4v46.3c0,1.6,0.3,2.9,0.8,3.8   c0.5,0.9,1.3,1.6,2.2,2c1,0.4,2.1,0.7,3.5,0.9L393.2,185.7L393.2,185.7z"></path>		<path class="st0" d="M416.9,125.5h-0.8v-0.9h21.2c3.4,0,6.3,0.5,8.6,1.6c2.4,1.1,4.2,2.4,5.5,4s2.2,3.3,2.8,5.1s0.9,3.6,0.9,5.3   c0,2.2-0.5,4.3-1.4,6.4c-0.9,2-2.4,3.8-4.3,5.2c-1.9,1.5-4.3,2.5-7.2,3v0.2c3.6,1.8,7,5.3,10.1,10.5l5.5,9.3   c2.5,4.2,4.5,6.8,6,7.9c1.5,1.1,3,1.7,4.5,1.9v0.7h-11.1c-0.5-0.6-0.9-1.2-1.3-1.8c-0.4-0.6-0.9-1.2-1.3-1.8   c-0.3-0.4-0.7-1-1.2-1.9c-0.5-0.8-0.9-1.3-1-1.4l-7.3-12.1c-1.5-2.5-3-4.5-4.5-6c-1.5-1.5-3-2.6-4.3-3.3s-2.5-1.1-3.6-1.2   c-1.1-0.2-2.3-0.2-3.8-0.2v22.4c0,4.3,2.2,6.6,6.6,6.7v0.7h-19.5v-0.7c1.2-0.1,2.3-0.3,3.2-0.7s1.7-1.1,2.4-2.1   c0.6-1,0.9-2.3,0.9-4v-46.2c0-2.4-0.6-4.2-1.8-5.2C419.6,126,418.3,125.5,416.9,125.5z M428.9,154.4h3.5c3.6,0,6.6-0.5,9-1.6   s4-2.6,5.1-4.5s1.6-4.3,1.6-7.2c0-2.4-0.5-4.6-1.4-6.9c-0.9-2.2-2.5-4.1-4.8-5.7c-2.3-1.5-5.3-2.3-9.1-2.3c-1.5,0-2.8,0.1-3.8,0.4   L428.9,154.4L428.9,154.4z"></path>		<path class="st0" d="M488.9,125.3v-0.7h36.4v9.6h-0.6c0-5.1-3.4-7.7-10.3-7.7h-12.7v27.8h11.2c2.2,0,4.2-0.4,5.9-1.1   s2.7-2.4,3-4.9h0.6v13.9h-0.6c-0.2-1.6-0.7-2.8-1.4-3.6c-0.7-0.8-1.4-1.4-2-1.7c-0.7-0.3-1.3-0.4-1.8-0.4c-1-0.2-2-0.2-3.1-0.2   h-11.8v21.7c0,1.6,0.3,3,0.9,4.2s2.1,1.8,4.3,1.8h9.1c2.2,0,4-0.3,5.4-0.9c1.4-0.6,2.5-1.5,3.3-2.7c0.8-1.1,1.5-2.5,2-4.1h0.6   l-2.1,9.6h-36.4v-0.7h0.8c1.3,0,2.6-0.5,3.8-1.6s1.9-2.8,1.9-5.1v-46.1c0-1.9-0.4-3.5-1.3-4.9c-0.8-1.4-2.3-2.1-4.4-2.1   L488.9,125.3L488.9,125.3z"></path>		<path class="st0" d="M632.2,124.6v0.7c-1.2,0.2-2.3,0.7-3.3,1.4c-1,0.7-1.9,1.8-2.9,3.4s-1.9,3.8-3,6.8l-17.1,50.5h-0.6   l-15.6-50.5h-0.2l-17,50.5h-0.6l-17.4-55.7c-0.6-2-1.4-3.4-2.3-4.3c-0.9-0.9-1.7-1.4-2.4-1.6c-0.7-0.2-1.6-0.3-2.7-0.4v-0.7h19   v0.7c-1.7,0.1-2.9,0.6-3.8,1.5c-0.8,0.9-1.3,2-1.3,3.3c0,1,0.2,2.2,0.7,3.7l12.9,41.3h0.2l13.9-41.3l-0.6-1.9   c-0.5-1.8-1.4-3.3-2.5-4.6c-1.1-1.3-2.8-1.9-5.2-2.1v-0.7h19.5v0.7c-2.2,0-3.7,0.6-4.3,1.7c-0.7,1.1-1,2.1-1,3.1   c0,1.2,0.2,2.4,0.6,3.7l12.7,41.3h0.2l13-38.3c0.4-1,0.7-2.2,1.1-3.6s0.5-2.6,0.5-3.5c0-1.9-0.4-3.1-1.2-3.5   c-0.8-0.5-2.1-0.8-4-0.9v-0.7H632.2z"></path>		<path class="st0" d="M714.8,155.2c0,5.7-1.4,11.1-4.2,16c-2.8,4.9-6.7,8.9-11.6,11.8c-4.9,2.9-10.3,4.4-16.3,4.4   c-6,0-11.5-1.5-16.4-4.4c-5-2.9-8.9-6.9-11.8-11.8c-2.9-4.9-4.3-10.4-4.3-16.2c0-4.5,0.8-8.7,2.5-12.6c1.7-3.9,4.1-7.4,7.1-10.3   s6.5-5.2,10.5-6.8c3.9-1.6,8-2.4,12.3-2.4c4.2,0,8.2,0.8,12,2.3c3.8,1.5,7.3,3.8,10.4,6.7c3.1,2.9,5.5,6.4,7.2,10.3   C713.9,146.1,714.8,150.5,714.8,155.2z M707.5,155.4c0-8.1-1.4-14.5-4.3-19.1s-6.2-7.7-10-9.2s-7.3-2.3-10.6-2.3   c-2.6,0-5.2,0.4-8,1.3c-2.8,0.8-5.5,2.4-8.1,4.6c-2.6,2.2-4.8,5.4-6.5,9.5c-1.7,4.1-2.5,9.1-2.5,15.1c0,5.3,0.7,9.8,2.1,13.8   c1.4,3.9,3.3,7.1,5.8,9.6s5.2,4.3,8.1,5.4c3,1.1,6,1.6,9.2,1.6c2.8,0,5.7-0.5,8.7-1.5c2.9-1,5.6-2.7,8-4.9s4.4-5.4,5.9-9.3   C706.8,165.8,707.5,161,707.5,155.4z"></path>		<path class="st0" d="M805.4,155.2c0,5.7-1.4,11.1-4.2,16c-2.8,4.9-6.7,8.9-11.6,11.8c-4.9,2.9-10.3,4.4-16.3,4.4   c-6,0-11.5-1.5-16.4-4.4c-5-2.9-8.9-6.9-11.8-11.8c-2.9-4.9-4.3-10.4-4.3-16.2c0-4.5,0.8-8.7,2.5-12.6c1.7-3.9,4.1-7.4,7.1-10.3   s6.5-5.2,10.5-6.8c3.9-1.6,8-2.4,12.3-2.4c4.2,0,8.2,0.8,12,2.3c3.8,1.5,7.3,3.8,10.4,6.7c3.1,2.9,5.5,6.4,7.2,10.3   C804.5,146.1,805.4,150.5,805.4,155.2z M798,155.4c0-8.1-1.4-14.5-4.3-19.1s-6.2-7.7-10-9.2s-7.3-2.3-10.6-2.3   c-2.6,0-5.2,0.4-8,1.3c-2.8,0.8-5.5,2.4-8.1,4.6c-2.6,2.2-4.8,5.4-6.5,9.5c-1.7,4.1-2.5,9.1-2.5,15.1c0,5.3,0.7,9.8,2.1,13.8   c1.4,3.9,3.3,7.1,5.8,9.6s5.2,4.3,8.1,5.4c3,1.1,6,1.6,9.2,1.6c2.8,0,5.7-0.5,8.7-1.5c2.9-1,5.6-2.7,8-4.9s4.4-5.4,5.9-9.3   C797.3,165.8,798,161,798,155.4z"></path>		<path class="st0" d="M830,125.3v-0.7h23.5c3.3,0,6.3,0.3,9.1,0.8c2.8,0.6,5.3,1.3,7.5,2.3c2.2,0.9,4.1,2,5.7,3.1   c1.6,1.1,3,2.3,4.1,3.4c1.9,1.9,3.6,4.1,4.9,6.4c1.4,2.4,2.4,4.9,3,7.5s1,5.3,1,8.1c0,2.8-0.3,5.4-1,8c-0.7,2.5-1.6,4.9-2.9,7   c-1.2,2.1-2.7,4.1-4.5,5.8c-1.7,1.7-3.7,3.3-6,4.7c-2,1.2-4.2,2.1-6.8,2.8c-2.5,0.7-6,1.1-10.3,1.1H830V185h0.8   c1.9,0,3.3-0.7,4.3-2.2c0.9-1.4,1.4-3,1.4-4.6v-46.2c0-1.6-0.3-2.9-0.8-3.9c-0.5-1.1-1.2-1.8-2-2.3c-0.9-0.5-1.8-0.7-2.9-0.7   L830,125.3L830,125.3z M842.9,127.5v48.4c0,2.4,0.4,4.1,1.1,5.2s1.9,1.9,3.5,2.2c1.6,0.3,4,0.5,7.1,0.5c4.4,0,8.2-0.4,11.2-1.3   c3-0.9,6-2.8,8.8-5.8c2.1-2.2,3.8-5,5.1-8.2s1.9-7.1,1.9-11.8c0-3.6-0.5-7.2-1.5-10.8c-1-3.6-2.6-6.7-4.7-9.5   c-2.3-3.1-5.4-5.6-9.1-7.4c-3.7-1.8-8.1-2.7-13.3-2.7C850.3,126.5,846.9,126.8,842.9,127.5z"></path>	</g>	<g>		<g>			<g>				<path class="st0" d="M271.1,213.6v-0.3h15v3.8h-0.3c-0.1-0.8-0.4-1.5-0.9-2.1s-1.4-0.9-2.6-0.9h-6v11.3h5.6     c1.1,0,1.8-0.2,2.2-0.6c0.4-0.4,0.6-1,0.7-1.8h0.3v5.6h-0.3c-0.1-0.7-0.3-1.3-0.7-1.8c-0.4-0.5-1.1-0.7-2.2-0.7h-5.6v9.1     c0,0.8,0.2,1.5,0.7,2s1,0.8,1.7,0.8h0.4v0.3h-8v-0.3h0.3c0.7,0,1.2-0.2,1.7-0.8s0.7-1.2,0.7-2v-18.9c0-1.1-0.2-1.8-0.7-2.2     c-0.5-0.4-1-0.6-1.6-0.6L271.1,213.6L271.1,213.6z"></path>				<path class="st0" d="M327.4,238.2h-5.2v-4.1L322,234c-0.7,1.7-1.8,2.9-3.2,3.7s-2.9,1.2-4.5,1.2c-1.8,0-3.4-0.4-4.8-1.3     s-2.5-1.9-3.1-3.1c-0.5-0.9-0.8-1.8-0.9-2.8c-0.1-0.9-0.2-1.9-0.2-3v-12.4c0-0.7-0.1-1.4-0.5-1.9c-0.3-0.5-1-0.8-2.1-0.9v-0.3     h7.8v0.3c-1.1,0.1-1.9,0.5-2.2,1s-0.5,1.1-0.5,1.8v12.2c0,2.5,0.2,4.3,0.8,5.5c0.5,1.3,1.4,2.2,2.4,3c1.1,0.7,2.3,1.1,3.7,1.1     c0.6,0,1.3-0.1,2-0.3c0.8-0.2,1.5-0.5,2.2-1c2.1-1.4,3.1-3.7,3.1-6.8v-13.6c0-0.7-0.2-1.3-0.5-1.8c-0.3-0.5-1.1-0.9-2.2-0.9     v-0.3h8v0.3c-1.1,0.1-1.9,0.4-2.2,1c-0.3,0.6-0.5,1.2-0.5,1.8v18.9c0,0.6,0.1,1.2,0.3,1.6s0.5,0.6,0.9,0.8     c0.4,0.2,0.9,0.3,1.4,0.4L327.4,238.2L327.4,238.2z"></path>				<path class="st0" d="M343.9,213.6h-0.3v-0.4h8.6c1.4,0,2.6,0.2,3.5,0.6c1,0.4,1.7,1,2.2,1.6s0.9,1.4,1.1,2.1s0.4,1.5,0.4,2.2     c0,0.9-0.2,1.8-0.6,2.6s-1,1.5-1.7,2.1s-1.8,1-2.9,1.2v0.1c1.5,0.7,2.9,2.1,4.1,4.3l2.2,3.8c1,1.7,1.8,2.8,2.5,3.2     c0.6,0.4,1.2,0.7,1.8,0.8v0.3h-4.5c-0.2-0.2-0.4-0.5-0.5-0.7s-0.4-0.5-0.5-0.7c-0.1-0.2-0.3-0.4-0.5-0.8s-0.4-0.5-0.4-0.6     l-3-4.9c-0.6-1-1.2-1.8-1.8-2.4c-0.6-0.6-1.2-1.1-1.8-1.4c-0.5-0.3-1-0.4-1.5-0.5c-0.4-0.1-0.9-0.1-1.5-0.1v9.1     c0,1.8,0.9,2.7,2.7,2.7v0.3h-7.9v-0.3c0.5,0,0.9-0.1,1.3-0.3s0.7-0.4,1-0.9c0.2-0.4,0.4-0.9,0.4-1.6v-18.9c0-1-0.2-1.7-0.7-2.1     C345,213.8,344.5,213.6,343.9,213.6z M348.8,225.4h1.4c1.5,0,2.7-0.2,3.7-0.6s1.6-1,2.1-1.8s0.6-1.8,0.6-2.9     c0-1-0.2-1.9-0.6-2.8c-0.4-0.9-1-1.7-2-2.3c-0.9-0.6-2.2-0.9-3.7-0.9c-0.6,0-1.1,0.1-1.6,0.1L348.8,225.4L348.8,225.4z"></path>				<path class="st0" d="M406.1,213.3v0.3c-0.6,0.1-1.1,0.2-1.5,0.4s-0.6,0.5-0.9,1c-0.2,0.5-0.3,1.2-0.3,2.1v21.9h-0.2l-19.1-21.4     v15.3c0,1.3,0,2.2,0.1,2.8s0.2,1.1,0.4,1.3c0.4,0.6,1.1,0.9,2.2,0.9v0.3h-6.2v-0.3c0.7,0,1.2-0.2,1.6-0.4s0.7-0.8,0.8-1.5     c0.2-0.7,0.2-1.8,0.2-3.2v-16.3l-0.8-0.9c-0.7-0.8-1.3-1.4-1.8-1.6s-1-0.4-1.6-0.5v-0.3h4.7l18.9,21.1v-16.1     c0-1.2,0-2.1-0.1-2.7c-0.1-0.6-0.4-1.1-0.8-1.4s-1.1-0.6-1.9-0.6v-0.3L406.1,213.3L406.1,213.3z"></path>				<path class="st0" d="M430.2,213.3v0.3c-0.7,0-1.4,0.2-1.9,0.6s-0.8,1.1-0.8,2.1v18.9c0,1,0.3,1.7,0.8,2.1s1.2,0.6,1.8,0.6v0.3     h-7.9v-0.3c0.7,0,1.4-0.2,1.9-0.6s0.8-1.1,0.8-2.1v-18.9c0-1-0.3-1.8-0.8-2.1c-0.5-0.4-1.1-0.6-1.9-0.6v-0.3L430.2,213.3     L430.2,213.3z"></path>				<path class="st0" d="M467.9,218.1h-0.3c-0.1-1.6-0.6-2.7-1.4-3.2c-0.8-0.5-1.8-0.7-3-0.7h-5v20.9c0,1.8,0.9,2.7,2.7,2.7v0.3H453     v-0.3c0.7,0,1.4-0.2,1.9-0.6c0.5-0.4,0.8-1.1,0.8-2.1v-20.9h-5c-1.2,0-2.2,0.2-3,0.7s-1.3,1.5-1.4,3.2h-0.3v-6.1h0.3     c0.2,0.3,0.3,0.5,0.5,0.6c0.1,0.1,0.3,0.2,0.5,0.4s0.5,0.2,0.8,0.2c0.3,0,0.6,0.1,1,0.1h16.1c1.1,0,1.9-0.4,2.5-1.2h0.3     L467.9,218.1L467.9,218.1z"></path>				<path class="st0" d="M508.2,238.2H503v-4.1l-0.1-0.1c-0.7,1.7-1.8,2.9-3.2,3.7s-2.9,1.2-4.5,1.2c-1.8,0-3.4-0.4-4.8-1.3     s-2.5-1.9-3.1-3.1c-0.5-0.9-0.8-1.8-0.9-2.8c-0.1-0.9-0.2-1.9-0.2-3v-12.4c0-0.7-0.1-1.4-0.5-1.9c-0.3-0.5-1-0.8-2.1-0.9v-0.3     h7.8v0.3c-1.1,0.1-1.9,0.5-2.2,1s-0.5,1.1-0.5,1.8v12.2c0,2.5,0.2,4.3,0.8,5.5c0.5,1.3,1.4,2.2,2.4,3c1.1,0.7,2.3,1.1,3.7,1.1     c0.6,0,1.3-0.1,2-0.3c0.8-0.2,1.5-0.5,2.2-1c2.1-1.4,3.1-3.7,3.1-6.8v-13.6c0-0.7-0.2-1.3-0.5-1.8c-0.3-0.5-1.1-0.9-2.2-0.9     v-0.3h8v0.3c-1.1,0.1-1.9,0.4-2.2,1c-0.3,0.6-0.5,1.2-0.5,1.8v18.9c0,0.6,0.1,1.2,0.3,1.6s0.5,0.6,0.9,0.8     c0.4,0.2,0.9,0.3,1.4,0.4L508.2,238.2L508.2,238.2z"></path>				<path class="st0" d="M524.8,213.6h-0.3v-0.4h8.6c1.4,0,2.6,0.2,3.5,0.6c1,0.4,1.7,1,2.2,1.6s0.9,1.4,1.2,2.1s0.3,1.5,0.3,2.2     c0,0.9-0.2,1.8-0.6,2.6s-1,1.5-1.7,2.1c-0.8,0.6-1.8,1-2.9,1.2v0.1c1.5,0.7,2.9,2.1,4.1,4.3l2.2,3.8c1,1.7,1.8,2.8,2.5,3.2     c0.6,0.4,1.2,0.7,1.8,0.8v0.3h-4.5c-0.2-0.2-0.4-0.5-0.5-0.7s-0.3-0.5-0.5-0.7c-0.1-0.2-0.3-0.4-0.5-0.8     c-0.2-0.3-0.3-0.5-0.4-0.6l-3-4.9c-0.6-1-1.2-1.8-1.8-2.4c-0.6-0.6-1.2-1.1-1.8-1.4c-0.5-0.3-1-0.4-1.5-0.5s-0.9-0.1-1.5-0.1     v9.1c0,1.8,0.9,2.7,2.7,2.7v0.3h-7.9v-0.3c0.5,0,0.9-0.1,1.3-0.3s0.7-0.4,1-0.9c0.2-0.4,0.4-0.9,0.4-1.6v-18.9     c0-1-0.2-1.7-0.7-2.1C525.9,213.8,525.4,213.6,524.8,213.6z M529.7,225.4h1.4c1.5,0,2.7-0.2,3.7-0.6c1-0.4,1.6-1,2.1-1.8     s0.6-1.8,0.6-2.9c0-1-0.2-1.9-0.6-2.8c-0.4-0.9-1-1.7-2-2.3c-0.9-0.6-2.2-0.9-3.7-0.9c-0.6,0-1.2,0.1-1.6,0.1L529.7,225.4     L529.7,225.4z"></path>				<path class="st0" d="M561.1,213.6v-0.3h14.9v3.9h-0.2c0-2.1-1.4-3.1-4.2-3.1h-5.2v11.3h4.6c0.9,0,1.7-0.1,2.4-0.4     c0.7-0.3,1.1-1,1.2-2h0.2v5.6h-0.2c-0.1-0.6-0.3-1.1-0.6-1.5c-0.3-0.3-0.6-0.6-0.8-0.7c-0.3-0.1-0.5-0.2-0.7-0.2     c-0.4-0.1-0.8-0.1-1.3-0.1h-4.8v8.9c0,0.7,0.1,1.2,0.4,1.7c0.2,0.5,0.8,0.7,1.8,0.7h3.7c0.9,0,1.6-0.1,2.2-0.4s1-0.6,1.4-1.1     c0.3-0.5,0.6-1,0.8-1.7h0.2l-0.9,3.9h-14.9v-0.3h0.3c0.5,0,1-0.2,1.6-0.6s0.8-1.1,0.8-2.1v-18.8c0-0.8-0.2-1.4-0.5-2     c-0.3-0.6-1-0.9-1.8-0.9L561.1,213.6L561.1,213.6z"></path>				<path class="st0" d="M641.2,221.9v0.3c-0.8,0-1.5,0.2-2,0.5c-0.5,0.3-1,0.8-1.4,1.4c-0.4,0.6-0.8,1.5-1.2,2.6     c-0.5,1.2-0.9,2.2-1.2,3s-0.7,1.3-0.9,1.7c-0.3,0.4-0.5,0.8-0.7,1.1c0.1,0.1,0.5,0.4,1.3,1.1s1.4,1.3,2,1.8c1.2,1,2.2,1.7,2.9,2     s1.4,0.4,2.1,0.5v0.3h-5.3c-1.9-1.6-3.4-2.8-4.3-3.7c-0.6,0.9-1.6,1.8-2.9,2.7c-1.3,1-2.9,1.5-4.7,1.5c-1,0-1.8-0.2-2.7-0.5     s-1.5-0.8-2.1-1.4s-1.1-1.3-1.4-2.1c-0.3-0.8-0.5-1.6-0.5-2.4c0-1.6,0.5-3,1.5-4.3s2.2-2.4,3.6-3.3l-0.2-0.2     c-1-1.1-1.8-2.2-2.4-3.2c-0.6-1-0.9-2-0.9-3c0-1,0.3-2,0.8-2.9s1.3-1.6,2.3-2.2c1-0.5,2.1-0.8,3.3-0.8c1.6,0,2.8,0.4,3.8,1.3     c1,0.9,1.5,2,1.5,3.2c0,1.4-0.6,2.7-1.7,3.8s-2.5,2.1-4,3.1c0.6,0.7,1.5,1.6,2.7,2.9l2.5,2.6c1,1,1.8,1.8,2.5,2.5     c0.6-0.9,1.2-2.2,1.9-3.9c0.7-1.7,1-3.1,1-4.2c0-0.7-0.2-1.2-0.5-1.4c-0.4-0.2-0.8-0.3-1.4-0.4v-0.3L641.2,221.9L641.2,221.9z      M623.4,225.4c-2.3,1.6-3.5,3.4-3.5,5.6c0,1.1,0.3,2.1,0.9,3c0.6,0.9,1.4,1.6,2.3,2.1c1,0.5,1.9,0.8,2.9,0.8     c0.9,0,1.6-0.1,2.3-0.5c0.7-0.3,1.3-0.6,1.8-1.1c0.5-0.4,1-0.8,1.5-1.3c-1-0.9-1.7-1.6-2.2-2.2c-0.5-0.5-1.1-1.1-1.6-1.6     c-0.6-0.6-1.2-1.2-1.8-1.9C625.4,227.6,624.5,226.7,623.4,225.4z M624.9,223.4c1.2-0.8,2.2-1.6,2.9-2.4c0.7-0.9,1.1-1.9,1.1-3.1     c0-0.7-0.2-1.4-0.5-2.1c-0.3-0.7-0.8-1.2-1.5-1.6c-0.6-0.4-1.4-0.6-2.2-0.6c-1.1,0-2,0.3-2.6,1s-0.9,1.5-0.9,2.4     c0,0.6,0.2,1.3,0.5,2.1s0.8,1.6,1.4,2.3C623.8,222.2,624.4,222.9,624.9,223.4z"></path>				<path class="st0" d="M682.7,213.6v-0.3h9.6c1.3,0,2.6,0.1,3.7,0.4c1.1,0.2,2.2,0.5,3,0.9c0.9,0.4,1.7,0.8,2.3,1.3     s1.2,0.9,1.7,1.4c0.8,0.8,1.5,1.7,2,2.6s1,2,1.2,3.1c0.3,1.1,0.4,2.2,0.4,3.3c0,1.1-0.1,2.2-0.4,3.2c-0.3,1-0.7,2-1.2,2.9     c-0.5,0.9-1.1,1.7-1.8,2.4s-1.5,1.4-2.5,1.9c-0.8,0.5-1.7,0.9-2.8,1.1c-1,0.3-2.4,0.4-4.2,0.4h-11.2v-0.3h0.3     c0.8,0,1.4-0.3,1.7-0.9c0.4-0.6,0.6-1.2,0.6-1.9v-18.8c0-0.6-0.1-1.2-0.3-1.6s-0.5-0.7-0.8-0.9c-0.3-0.2-0.7-0.3-1.2-0.3     L682.7,213.6L682.7,213.6z M687.9,214.5v19.8c0,1,0.2,1.7,0.5,2.1s0.8,0.8,1.5,0.9c0.7,0.1,1.6,0.2,2.9,0.2     c1.8,0,3.3-0.2,4.6-0.5c1.2-0.4,2.4-1.1,3.6-2.4c0.9-0.9,1.5-2,2.1-3.4c0.5-1.3,0.8-2.9,0.8-4.8c0-1.5-0.2-2.9-0.6-4.4     s-1-2.7-1.9-3.9c-1-1.3-2.2-2.3-3.7-3c-1.5-0.7-3.3-1.1-5.4-1.1C690.9,214.1,689.5,214.2,687.9,214.5z"></path>				<path class="st0" d="M723.5,213.6v-0.3h14.9v3.9h-0.2c0-2.1-1.4-3.1-4.2-3.1h-5.2v11.3h4.6c0.9,0,1.7-0.1,2.4-0.4     c0.7-0.3,1.1-1,1.2-2h0.2v5.6h-0.2c-0.1-0.6-0.3-1.1-0.6-1.5c-0.3-0.3-0.6-0.6-0.8-0.7c-0.3-0.1-0.5-0.2-0.7-0.2     c-0.4-0.1-0.8-0.1-1.3-0.1h-4.8v8.9c0,0.7,0.1,1.2,0.4,1.7c0.2,0.5,0.8,0.7,1.8,0.7h3.7c0.9,0,1.6-0.1,2.2-0.4s1-0.6,1.4-1.1     c0.3-0.5,0.6-1,0.8-1.7h0.2l-0.9,3.9h-14.8v-0.3h0.3c0.5,0,1-0.2,1.6-0.6s0.8-1.1,0.8-2.1v-18.8c0-0.8-0.2-1.4-0.5-2     c-0.3-0.6-1-0.9-1.8-0.9L723.5,213.6L723.5,213.6z"></path>				<path class="st0" d="M777.6,218.9h-0.3c-0.2-1.2-0.8-2.2-1.7-3.1s-2-1.5-3.2-1.9s-2.3-0.6-3.4-0.6c-1.4,0-2.8,0.3-4,0.9     c-1.3,0.6-2.3,1.5-3.3,2.6c-0.9,1.1-1.6,2.4-2.1,4c-0.5,1.5-0.8,3.2-0.8,5c0,1.8,0.2,3.4,0.7,4.9c0.5,1.5,1.2,2.8,2.2,3.9     s2,1.9,3.3,2.5c1.2,0.6,2.6,0.9,4.1,0.9c1.3,0,2.7-0.3,4.2-0.8c1.5-0.5,2.9-1.4,4.1-2.6v1c-1.5,1.2-2.9,2-4.1,2.6     c-1.2,0.5-2.8,0.8-4.7,0.8c-2,0-3.8-0.4-5.4-1.1c-1.6-0.7-3-1.7-4.1-2.9c-1.1-1.2-2-2.6-2.5-4.1c-0.6-1.5-0.9-3.1-0.9-4.7     c0-2.4,0.6-4.7,1.8-6.8c1.2-2.1,2.8-3.7,4.9-4.9c2-1.2,4.3-1.8,6.7-1.8c1.5,0,3,0.2,4.7,0.7l1.8,0.5c0.3,0.1,0.6,0.1,0.9,0.1     c0.4,0,0.7-0.1,0.9-0.2c0.2-0.1,0.3-0.4,0.3-0.7h0.3L777.6,218.9z"></path>				<path class="st0" d="M820.8,225.8c0,2.3-0.6,4.5-1.7,6.5c-1.2,2-2.7,3.6-4.7,4.8s-4.2,1.8-6.6,1.8c-2.4,0-4.7-0.6-6.7-1.8     c-2-1.2-3.6-2.8-4.8-4.8s-1.8-4.2-1.8-6.6c0-1.8,0.3-3.6,1-5.1s1.7-3,2.9-4.2c1.2-1.2,2.7-2.1,4.3-2.8c1.6-0.6,3.3-1,5-1     c1.7,0,3.3,0.3,4.9,0.9c1.6,0.6,3,1.5,4.2,2.7c1.2,1.2,2.2,2.6,2.9,4.2C820.4,222.1,820.8,223.8,820.8,225.8z M817.8,225.8     c0-3.3-0.6-5.9-1.8-7.8s-2.5-3.1-4.1-3.8c-1.5-0.6-3-1-4.3-1c-1,0-2.1,0.2-3.3,0.5c-1.1,0.3-2.2,1-3.3,1.9     c-1.1,0.9-1.9,2.2-2.6,3.9s-1,3.7-1,6.1c0,2.1,0.3,4,0.8,5.6c0.6,1.6,1.3,2.9,2.3,3.9c1,1,2.1,1.7,3.3,2.2     c1.2,0.4,2.5,0.7,3.8,0.7c1.2,0,2.3-0.2,3.5-0.6c1.2-0.4,2.3-1.1,3.3-2s1.8-2.2,2.4-3.8C817.5,230.1,817.8,228.1,817.8,225.8z"></path>				<path class="st0" d="M838,213.6h-0.3v-0.4h8.6c1.4,0,2.6,0.2,3.5,0.6c1,0.4,1.7,1,2.2,1.6s0.9,1.4,1.2,2.1s0.3,1.5,0.3,2.2     c0,0.9-0.2,1.8-0.6,2.6s-1,1.5-1.7,2.1c-0.8,0.6-1.8,1-2.9,1.2v0.1c1.5,0.7,2.9,2.1,4.1,4.3l2.2,3.8c1,1.7,1.8,2.8,2.5,3.2     c0.6,0.4,1.2,0.7,1.8,0.8v0.3h-4.5c-0.2-0.2-0.4-0.5-0.5-0.7s-0.3-0.5-0.5-0.7c-0.1-0.2-0.3-0.4-0.5-0.8     c-0.2-0.3-0.3-0.5-0.4-0.6l-3-4.9c-0.6-1-1.2-1.8-1.8-2.4c-0.6-0.6-1.2-1.1-1.8-1.4c-0.5-0.3-1-0.4-1.5-0.5s-0.9-0.1-1.5-0.1     v9.1c0,1.8,0.9,2.7,2.7,2.7v0.3h-7.9v-0.3c0.5,0,0.9-0.1,1.3-0.3s0.7-0.4,1-0.9c0.2-0.4,0.4-0.9,0.4-1.6v-18.9     c0-1-0.2-1.7-0.7-2.1C839.1,213.8,838.5,213.6,838,213.6z M842.9,225.4h1.4c1.5,0,2.7-0.2,3.7-0.6c1-0.4,1.6-1,2.1-1.8     s0.6-1.8,0.6-2.9c0-1-0.2-1.9-0.6-2.8c-0.4-0.9-1-1.7-2-2.3c-0.9-0.6-2.2-0.9-3.7-0.9c-0.6,0-1.2,0.1-1.6,0.1L842.9,225.4     L842.9,225.4z"></path>				<path class="st0" d="M874.3,213.6v-0.3h14.9v3.9h-0.2c0-2.1-1.4-3.1-4.2-3.1h-5.2v11.3h4.6c0.9,0,1.7-0.1,2.4-0.4s1.1-1,1.2-2     h0.2v5.6h-0.2c-0.1-0.6-0.3-1.1-0.6-1.5c-0.3-0.3-0.6-0.6-0.8-0.7c-0.3-0.1-0.5-0.2-0.7-0.2c-0.4-0.1-0.8-0.1-1.3-0.1h-4.8v8.9     c0,0.7,0.1,1.2,0.4,1.7c0.2,0.5,0.8,0.7,1.8,0.7h3.7c0.9,0,1.6-0.1,2.2-0.4s1-0.6,1.4-1.1c0.3-0.5,0.6-1,0.8-1.7h0.2l-0.9,3.9     h-14.9v-0.3h0.3c0.5,0,1-0.2,1.6-0.6s0.8-1.1,0.8-2.1v-18.8c0-0.8-0.2-1.4-0.5-2c-0.3-0.6-1-0.9-1.8-0.9L874.3,213.6     L874.3,213.6z"></path>			</g>		</g>	</g></g></svg>